<svg width="182" height="32" viewBox="0 0 182 32" fill="none" xmlns="http://www.w3.org/2000/svg">
<mask id="path-1-outside-1_37_5" maskUnits="userSpaceOnUse" x="-1" y="2" width="138" height="28" fill="black">
<rect fill="white" x="-1" y="2" width="138" height="28"/>
<path d="M6.2207 9.34766V13.791H11.1699C12.054 13.791 12.7695 13.627 13.3164 13.2988C13.8724 12.9616 14.1504 12.3691 14.1504 11.5215C14.1504 10.5827 13.7858 9.96289 13.0566 9.66211C12.4277 9.45247 11.6257 9.34766 10.6504 9.34766H6.2207ZM6.2207 17.127V22.5H11.1699C12.054 22.5 12.7422 22.3815 13.2344 22.1445C14.1276 21.707 14.5742 20.8685 14.5742 19.6289C14.5742 18.5807 14.1413 17.8607 13.2754 17.4688C12.7923 17.25 12.1133 17.1361 11.2383 17.127H6.2207ZM11.9902 5.84766C14.4603 5.88411 16.2103 6.59961 17.2402 7.99414C17.86 8.85091 18.1699 9.8763 18.1699 11.0703C18.1699 12.3008 17.86 13.2897 17.2402 14.0371C16.8939 14.4564 16.3835 14.8392 15.709 15.1855C16.7389 15.5592 17.5137 16.1517 18.0332 16.9629C18.5618 17.7741 18.8262 18.7585 18.8262 19.916C18.8262 21.11 18.5254 22.181 17.9238 23.1289C17.541 23.7578 17.0625 24.2865 16.4883 24.7148C15.8411 25.207 15.0755 25.5443 14.1914 25.7266C13.3164 25.9089 12.3639 26 11.334 26H2.20117V5.84766H11.9902ZM27.1786 9.32031H23.2274V5.72461H27.1786V9.32031ZM23.2274 11.0977H27.1786V26H23.2274V11.0977ZM30.5545 14.0098V11.2344H32.6326V7.07812H36.488V11.2344H38.908V14.0098H36.488V21.8848C36.488 22.4954 36.5655 22.8783 36.7205 23.0332C36.8754 23.179 37.3494 23.252 38.1423 23.252C38.2608 23.252 38.3839 23.252 38.5115 23.252C38.6482 23.2428 38.7804 23.2337 38.908 23.2246V26.1367L37.0623 26.2051C35.2211 26.2689 33.9633 25.9499 33.2888 25.248C32.8513 24.8014 32.6326 24.1133 32.6326 23.1836V14.0098H30.5545ZM48.4088 13.9141C47.5065 13.9141 46.8047 14.1966 46.3034 14.7617C45.8112 15.3268 45.5013 16.0924 45.3737 17.0586H51.4303C51.3665 16.0286 51.0521 15.2493 50.487 14.7207C49.931 14.1829 49.2383 13.9141 48.4088 13.9141ZM48.4088 10.7012C49.6484 10.7012 50.7649 10.9336 51.7584 11.3984C52.7519 11.8633 53.5722 12.597 54.2194 13.5996C54.8027 14.4837 55.181 15.5091 55.3541 16.6758C55.4544 17.3594 55.4954 18.3438 55.4772 19.6289H45.278C45.3327 21.1237 45.8021 22.1719 46.6862 22.7734C47.2239 23.1471 47.8711 23.334 48.6276 23.334C49.4297 23.334 50.0814 23.1061 50.5827 22.6504C50.8561 22.4043 51.0976 22.0625 51.3073 21.625H55.2858C55.1855 22.5091 54.7252 23.4069 53.9049 24.3184C52.6289 25.7676 50.8424 26.4922 48.5455 26.4922C46.6497 26.4922 44.9772 25.8815 43.528 24.6602C42.0788 23.4388 41.3541 21.4518 41.3541 18.6992C41.3541 16.1198 42.0058 14.1419 43.3092 12.7656C44.6217 11.3893 46.3216 10.7012 48.4088 10.7012ZM62.5991 19.7793C62.7267 20.6999 62.9774 21.388 63.3511 21.8438C64.0347 22.6732 65.2059 23.0879 66.8648 23.0879C67.8583 23.0879 68.6649 22.9785 69.2847 22.7598C70.4605 22.3405 71.0484 21.5612 71.0484 20.4219C71.0484 19.7565 70.7567 19.2415 70.1734 18.877C69.59 18.5215 68.674 18.207 67.4253 17.9336L65.2925 17.4551C63.1961 16.9811 61.7469 16.4661 60.9448 15.9102C59.5868 14.9805 58.9077 13.5267 58.9077 11.5488C58.9077 9.74414 59.564 8.24479 60.8765 7.05078C62.189 5.85677 64.1167 5.25977 66.6597 5.25977C68.7834 5.25977 70.5926 5.82487 72.0874 6.95508C73.5913 8.07617 74.3797 9.70768 74.4527 11.8496H70.4058C70.3329 10.6374 69.8042 9.77604 68.8198 9.26562C68.1636 8.92839 67.3478 8.75977 66.3726 8.75977C65.2879 8.75977 64.4221 8.97852 63.7749 9.41602C63.1278 9.85352 62.8042 10.4642 62.8042 11.248C62.8042 11.9681 63.1232 12.5059 63.7612 12.8613C64.1714 13.0983 65.0464 13.3763 66.3862 13.6953L69.8589 14.5293C71.381 14.8939 72.5295 15.3815 73.3042 15.9922C74.5073 16.9401 75.1089 18.3118 75.1089 20.1074C75.1089 21.9486 74.4025 23.4798 72.9898 24.7012C71.5861 25.9134 69.5991 26.5195 67.0288 26.5195C64.4038 26.5195 62.3394 25.9225 60.8355 24.7285C59.3316 23.5254 58.5796 21.8757 58.5796 19.7793H62.5991ZM83.0375 9.32031H79.0863V5.72461H83.0375V9.32031ZM79.0863 11.0977H83.0375V26H79.0863V11.0977ZM87.097 14.2695V11.0977H99.1829V14.3379L91.6223 22.8008H99.4427V26H86.5774V22.9648L94.22 14.2695H87.097ZM108.944 13.9141C108.041 13.9141 107.339 14.1966 106.838 14.7617C106.346 15.3268 106.036 16.0924 105.908 17.0586H111.965C111.901 16.0286 111.587 15.2493 111.022 14.7207C110.466 14.1829 109.773 13.9141 108.944 13.9141ZM108.944 10.7012C110.183 10.7012 111.3 10.9336 112.293 11.3984C113.287 11.8633 114.107 12.597 114.754 13.5996C115.337 14.4837 115.716 15.5091 115.889 16.6758C115.989 17.3594 116.03 18.3438 116.012 19.6289H105.813C105.867 21.1237 106.337 22.1719 107.221 22.7734C107.759 23.1471 108.406 23.334 109.162 23.334C109.964 23.334 110.616 23.1061 111.117 22.6504C111.391 22.4043 111.632 22.0625 111.842 21.625H115.82C115.72 22.5091 115.26 23.4069 114.44 24.3184C113.164 25.7676 111.377 26.4922 109.08 26.4922C107.184 26.4922 105.512 25.8815 104.063 24.6602C102.613 23.4388 101.889 21.4518 101.889 18.6992C101.889 16.1198 102.541 14.1419 103.844 12.7656C105.156 11.3893 106.856 10.7012 108.944 10.7012ZM125.267 10.7422C126.169 10.7422 126.971 10.9427 127.673 11.3438C128.375 11.7357 128.944 12.2826 129.382 12.9844V5.875H133.333V26H129.546V23.9355C128.99 24.8197 128.356 25.4622 127.646 25.8633C126.935 26.2643 126.05 26.4648 124.993 26.4648C123.252 26.4648 121.785 25.763 120.591 24.3594C119.406 22.9466 118.814 21.1374 118.814 18.9316C118.814 16.3887 119.397 14.388 120.564 12.9297C121.739 11.4714 123.307 10.7422 125.267 10.7422ZM126.114 23.1836C127.217 23.1836 128.056 22.7734 128.63 21.9531C129.204 21.1328 129.491 20.071 129.491 18.7676C129.491 16.9447 129.031 15.6413 128.11 14.8574C127.545 14.3835 126.889 14.1465 126.142 14.1465C125.002 14.1465 124.164 14.5794 123.626 15.4453C123.097 16.3021 122.833 17.3685 122.833 18.6445C122.833 20.0208 123.102 21.1237 123.64 21.9531C124.187 22.7734 125.011 23.1836 126.114 23.1836Z"/>
</mask>
<path d="M6.2207 9.34766V6.34766H3.2207V9.34766H6.2207ZM6.2207 13.791H3.2207V16.791H6.2207V13.791ZM13.3164 13.2988L14.8599 15.8713L14.8661 15.8676L14.8722 15.8639L13.3164 13.2988ZM13.0566 9.66211L14.2006 6.88879L14.1042 6.84903L14.0053 6.81606L13.0566 9.66211ZM6.2207 17.127V14.127H3.2207V17.127H6.2207ZM6.2207 22.5H3.2207V25.5H6.2207V22.5ZM13.2344 22.1445L14.5358 24.8475L14.5449 24.8432L14.554 24.8387L13.2344 22.1445ZM13.2754 17.4688L12.0379 20.2016L12.0383 20.2018L13.2754 17.4688ZM11.2383 17.127L11.2695 14.1271L11.2539 14.127H11.2383V17.127ZM11.9902 5.84766L12.0345 2.84798L12.0124 2.84766H11.9902V5.84766ZM17.2402 7.99414L19.6709 6.23578L19.6622 6.22377L19.6534 6.21185L17.2402 7.99414ZM17.2402 14.0371L14.931 12.1221L14.9273 12.1265L17.2402 14.0371ZM15.709 15.1855L14.3386 12.5168L8.21902 15.6593L14.6858 18.0057L15.709 15.1855ZM18.0332 16.9629L15.5069 18.5809L15.5133 18.5909L15.5198 18.6008L18.0332 16.9629ZM17.9238 23.1289L15.3908 21.5214L15.3758 21.5451L15.3612 21.5691L17.9238 23.1289ZM16.4883 24.7148L14.6944 22.3103L14.6832 22.3186L14.6722 22.327L16.4883 24.7148ZM14.1914 25.7266L13.5856 22.7884L13.5795 22.7896L14.1914 25.7266ZM2.20117 26H-0.798828V29H2.20117V26ZM2.20117 5.84766V2.84766H-0.798828V5.84766H2.20117ZM3.2207 9.34766V13.791H9.2207V9.34766H3.2207ZM6.2207 16.791H11.1699V10.791H6.2207V16.791ZM11.1699 16.791C12.3968 16.791 13.7002 16.5671 14.8599 15.8713L11.7729 10.7263C11.8388 10.6868 11.7113 10.791 11.1699 10.791V16.791ZM14.8722 15.8639C16.5961 14.8182 17.1504 13.0558 17.1504 11.5215H11.1504C11.1504 11.6299 11.1312 11.5293 11.226 11.3272C11.3364 11.092 11.5297 10.8738 11.7606 10.7338L14.8722 15.8639ZM17.1504 11.5215C17.1504 10.6766 16.987 9.72275 16.4628 8.83148C15.9167 7.90313 15.1075 7.26286 14.2006 6.88879L11.9126 12.4354C11.8386 12.4049 11.7261 12.3461 11.6033 12.2427C11.4782 12.1374 11.3715 12.0101 11.2912 11.8736C11.1315 11.6021 11.1504 11.4275 11.1504 11.5215H17.1504ZM14.0053 6.81606C12.963 6.46861 11.8108 6.34766 10.6504 6.34766V12.3477C11.4405 12.3477 11.8925 12.4363 12.108 12.5082L14.0053 6.81606ZM10.6504 6.34766H6.2207V12.3477H10.6504V6.34766ZM3.2207 17.127V22.5H9.2207V17.127H3.2207ZM6.2207 25.5H11.1699V19.5H6.2207V25.5ZM11.1699 25.5C12.2578 25.5 13.4621 25.3645 14.5358 24.8475L11.9329 19.4415C11.9963 19.411 11.9817 19.4302 11.8401 19.4546C11.7015 19.4785 11.484 19.5 11.1699 19.5V25.5ZM14.554 24.8387C16.7487 23.7638 17.5742 21.6744 17.5742 19.6289H11.5742C11.5742 19.9019 11.5238 19.9042 11.5914 19.7772C11.6266 19.7112 11.6803 19.6367 11.7516 19.5688C11.8218 19.5019 11.8838 19.4655 11.9148 19.4503L14.554 24.8387ZM17.5742 19.6289C17.5742 18.6939 17.3794 17.6864 16.8206 16.7569C16.2501 15.8081 15.4247 15.1486 14.5125 14.7357L12.0383 20.2018C12.025 20.1958 11.9681 20.1678 11.8926 20.1031C11.8146 20.0364 11.7391 19.9495 11.6785 19.8486C11.5525 19.6391 11.5742 19.5157 11.5742 19.6289H17.5742ZM14.5129 14.7359C13.4822 14.2691 12.3243 14.1381 11.2695 14.1271L11.207 20.1268C11.5282 20.1301 11.7563 20.1525 11.9074 20.1779C12.0628 20.204 12.0906 20.2255 12.0379 20.2016L14.5129 14.7359ZM11.2383 14.127H6.2207V20.127H11.2383V14.127ZM11.946 8.84733C13.8994 8.87616 14.5627 9.41856 14.8271 9.77643L19.6534 6.21185C17.8578 3.78065 15.0212 2.89207 12.0345 2.84798L11.946 8.84733ZM14.8096 9.7525C15.0123 10.0328 15.1699 10.4227 15.1699 11.0703H21.1699C21.1699 9.32993 20.7077 7.66901 19.6709 6.23578L14.8096 9.7525ZM15.1699 11.0703C15.1699 11.7927 14.9958 12.0439 14.931 12.1221L19.5495 15.9521C20.7242 14.5355 21.1699 12.8088 21.1699 11.0703H15.1699ZM14.9273 12.1265C14.9286 12.125 14.8949 12.1657 14.7977 12.2387C14.7002 12.3117 14.5525 12.407 14.3386 12.5168L17.0794 17.8542C17.9831 17.3902 18.8665 16.7789 19.5531 15.9478L14.9273 12.1265ZM14.6858 18.0057C15.1854 18.187 15.3907 18.3995 15.5069 18.5809L20.5595 15.3449C19.6366 13.9039 18.2924 12.9315 16.7322 12.3654L14.6858 18.0057ZM15.5198 18.6008C15.6733 18.8364 15.8262 19.2248 15.8262 19.916H21.8262C21.8262 18.2921 21.4504 16.7118 20.5466 15.3249L15.5198 18.6008ZM15.8262 19.916C15.8262 20.5786 15.6677 21.0851 15.3908 21.5214L20.4568 24.7364C21.3831 23.2768 21.8262 21.6415 21.8262 19.916H15.8262ZM15.3612 21.5691C15.1725 21.879 14.9521 22.118 14.6944 22.3103L18.2822 27.1194C19.1729 26.4549 19.9095 25.6366 20.4864 24.6887L15.3612 21.5691ZM14.6722 22.327C14.42 22.5188 14.0791 22.6866 13.5856 22.7884L14.7972 28.6648C16.0719 28.4019 17.2623 27.8953 18.3044 27.1027L14.6722 22.327ZM13.5795 22.7896C12.9335 22.9242 12.1887 23 11.334 23V29C12.5391 29 13.6993 28.8935 14.8033 28.6635L13.5795 22.7896ZM11.334 23H2.20117V29H11.334V23ZM5.20117 26V5.84766H-0.798828V26H5.20117ZM2.20117 8.84766H11.9902V2.84766H2.20117V8.84766ZM27.1786 9.32031V12.3203H30.1786V9.32031H27.1786ZM23.2274 9.32031H20.2274V12.3203H23.2274V9.32031ZM23.2274 5.72461V2.72461H20.2274V5.72461H23.2274ZM27.1786 5.72461H30.1786V2.72461H27.1786V5.72461ZM23.2274 11.0977V8.09766H20.2274V11.0977H23.2274ZM27.1786 11.0977H30.1786V8.09766H27.1786V11.0977ZM27.1786 26V29H30.1786V26H27.1786ZM23.2274 26H20.2274V29H23.2274V26ZM27.1786 6.32031H23.2274V12.3203H27.1786V6.32031ZM26.2274 9.32031V5.72461H20.2274V9.32031H26.2274ZM23.2274 8.72461H27.1786V2.72461H23.2274V8.72461ZM24.1786 5.72461V9.32031H30.1786V5.72461H24.1786ZM23.2274 14.0977H27.1786V8.09766H23.2274V14.0977ZM24.1786 11.0977V26H30.1786V11.0977H24.1786ZM27.1786 23H23.2274V29H27.1786V23ZM26.2274 26V11.0977H20.2274V26H26.2274ZM30.5545 14.0098H27.5545V17.0098H30.5545V14.0098ZM30.5545 11.2344V8.23438H27.5545V11.2344H30.5545ZM32.6326 11.2344V14.2344H35.6326V11.2344H32.6326ZM32.6326 7.07812V4.07812H29.6326V7.07812H32.6326ZM36.488 7.07812H39.488V4.07812H36.488V7.07812ZM36.488 11.2344H33.488V14.2344H36.488V11.2344ZM38.908 11.2344H41.908V8.23438H38.908V11.2344ZM38.908 14.0098V17.0098H41.908V14.0098H38.908ZM36.488 14.0098V11.0098H33.488V14.0098H36.488ZM36.7205 23.0332L34.5991 25.1545L34.6313 25.1867L34.6644 25.2178L36.7205 23.0332ZM38.5115 23.252V26.252H38.6114L38.711 26.2453L38.5115 23.252ZM38.908 23.2246H41.908V20.0027L38.6942 20.2322L38.908 23.2246ZM38.908 26.1367L39.019 29.1347L41.908 29.0277V26.1367H38.908ZM37.0623 26.2051L37.1662 29.2033L37.1733 29.203L37.0623 26.2051ZM33.2888 25.248L35.4519 23.1693L35.4419 23.1589L35.4319 23.1487L33.2888 25.248ZM32.6326 14.0098H35.6326V11.0098H32.6326V14.0098ZM33.5545 14.0098V11.2344H27.5545V14.0098H33.5545ZM30.5545 14.2344H32.6326V8.23438H30.5545V14.2344ZM35.6326 11.2344V7.07812H29.6326V11.2344H35.6326ZM32.6326 10.0781H36.488V4.07812H32.6326V10.0781ZM33.488 7.07812V11.2344H39.488V7.07812H33.488ZM36.488 14.2344H38.908V8.23438H36.488V14.2344ZM35.908 11.2344V14.0098H41.908V11.2344H35.908ZM38.908 11.0098H36.488V17.0098H38.908V11.0098ZM33.488 14.0098V21.8848H39.488V14.0098H33.488ZM33.488 21.8848C33.488 22.2917 33.5118 22.7605 33.6058 23.225C33.6817 23.6001 33.89 24.4453 34.5991 25.1545L38.8418 20.9119C39.1443 21.2144 39.2991 21.514 39.3726 21.6841C39.4484 21.8594 39.4773 21.9892 39.4865 22.0348C39.5031 22.1165 39.488 22.0885 39.488 21.8848H33.488ZM34.6644 25.2178C35.1347 25.6605 35.635 25.8664 35.9109 25.9624C36.2185 26.0694 36.5087 26.1274 36.736 26.1624C37.1894 26.2321 37.678 26.252 38.1423 26.252V20.252C37.9881 20.252 37.8687 20.2484 37.7798 20.2432C37.736 20.2407 37.703 20.238 37.6797 20.2357C37.6561 20.2334 37.6463 20.2318 37.6483 20.2322C37.6498 20.2324 37.67 20.2355 37.7052 20.2436C37.7393 20.2515 37.801 20.2672 37.8821 20.2954C37.9612 20.3229 38.0824 20.3705 38.2265 20.4488C38.3685 20.5261 38.5679 20.6522 38.7766 20.8486L34.6644 25.2178ZM38.1423 26.252C38.1426 26.252 38.1428 26.252 38.143 26.252C38.1433 26.252 38.1435 26.252 38.1437 26.252C38.144 26.252 38.1442 26.252 38.1444 26.252C38.1447 26.252 38.1449 26.252 38.1451 26.252C38.1454 26.252 38.1456 26.252 38.1458 26.252C38.146 26.252 38.1463 26.252 38.1465 26.252C38.1467 26.252 38.147 26.252 38.1472 26.252C38.1474 26.252 38.1477 26.252 38.1479 26.252C38.1481 26.252 38.1484 26.252 38.1486 26.252C38.1488 26.252 38.1491 26.252 38.1493 26.252C38.1495 26.252 38.1498 26.252 38.15 26.252C38.1502 26.252 38.1505 26.252 38.1507 26.252C38.1509 26.252 38.1511 26.252 38.1514 26.252C38.1516 26.252 38.1518 26.252 38.1521 26.252C38.1523 26.252 38.1525 26.252 38.1528 26.252C38.153 26.252 38.1532 26.252 38.1535 26.252C38.1537 26.252 38.1539 26.252 38.1542 26.252C38.1544 26.252 38.1546 26.252 38.1549 26.252C38.1551 26.252 38.1553 26.252 38.1556 26.252C38.1558 26.252 38.156 26.252 38.1562 26.252C38.1565 26.252 38.1567 26.252 38.1569 26.252C38.1572 26.252 38.1574 26.252 38.1576 26.252C38.1579 26.252 38.1581 26.252 38.1583 26.252C38.1586 26.252 38.1588 26.252 38.159 26.252C38.1593 26.252 38.1595 26.252 38.1597 26.252C38.16 26.252 38.1602 26.252 38.1604 26.252C38.1607 26.252 38.1609 26.252 38.1611 26.252C38.1614 26.252 38.1616 26.252 38.1618 26.252C38.1621 26.252 38.1623 26.252 38.1625 26.252C38.1628 26.252 38.163 26.252 38.1632 26.252C38.1635 26.252 38.1637 26.252 38.1639 26.252C38.1641 26.252 38.1644 26.252 38.1646 26.252C38.1648 26.252 38.1651 26.252 38.1653 26.252C38.1655 26.252 38.1658 26.252 38.166 26.252C38.1662 26.252 38.1665 26.252 38.1667 26.252C38.1669 26.252 38.1672 26.252 38.1674 26.252C38.1676 26.252 38.1679 26.252 38.1681 26.252C38.1683 26.252 38.1686 26.252 38.1688 26.252C38.169 26.252 38.1693 26.252 38.1695 26.252C38.1697 26.252 38.17 26.252 38.1702 26.252C38.1704 26.252 38.1707 26.252 38.1709 26.252C38.1711 26.252 38.1714 26.252 38.1716 26.252C38.1718 26.252 38.1721 26.252 38.1723 26.252C38.1725 26.252 38.1728 26.252 38.173 26.252C38.1732 26.252 38.1735 26.252 38.1737 26.252C38.1739 26.252 38.1742 26.252 38.1744 26.252C38.1746 26.252 38.1749 26.252 38.1751 26.252C38.1753 26.252 38.1756 26.252 38.1758 26.252C38.176 26.252 38.1763 26.252 38.1765 26.252C38.1767 26.252 38.177 26.252 38.1772 26.252C38.1774 26.252 38.1777 26.252 38.1779 26.252C38.1781 26.252 38.1784 26.252 38.1786 26.252C38.1788 26.252 38.1791 26.252 38.1793 26.252C38.1795 26.252 38.1798 26.252 38.18 26.252C38.1802 26.252 38.1805 26.252 38.1807 26.252C38.1809 26.252 38.1812 26.252 38.1814 26.252C38.1816 26.252 38.1819 26.252 38.1821 26.252C38.1823 26.252 38.1826 26.252 38.1828 26.252C38.183 26.252 38.1833 26.252 38.1835 26.252C38.1837 26.252 38.184 26.252 38.1842 26.252C38.1844 26.252 38.1847 26.252 38.1849 26.252C38.1851 26.252 38.1854 26.252 38.1856 26.252C38.1858 26.252 38.1861 26.252 38.1863 26.252C38.1865 26.252 38.1868 26.252 38.187 26.252C38.1872 26.252 38.1875 26.252 38.1877 26.252C38.1879 26.252 38.1882 26.252 38.1884 26.252C38.1886 26.252 38.1889 26.252 38.1891 26.252C38.1893 26.252 38.1896 26.252 38.1898 26.252C38.19 26.252 38.1903 26.252 38.1905 26.252C38.1907 26.252 38.191 26.252 38.1912 26.252C38.1914 26.252 38.1917 26.252 38.1919 26.252C38.1921 26.252 38.1924 26.252 38.1926 26.252C38.1928 26.252 38.1931 26.252 38.1933 26.252C38.1935 26.252 38.1938 26.252 38.194 26.252C38.1942 26.252 38.1945 26.252 38.1947 26.252C38.1949 26.252 38.1952 26.252 38.1954 26.252C38.1956 26.252 38.1959 26.252 38.1961 26.252C38.1963 26.252 38.1966 26.252 38.1968 26.252C38.197 26.252 38.1973 26.252 38.1975 26.252C38.1978 26.252 38.198 26.252 38.1982 26.252C38.1985 26.252 38.1987 26.252 38.1989 26.252C38.1992 26.252 38.1994 26.252 38.1996 26.252C38.1999 26.252 38.2001 26.252 38.2003 26.252C38.2006 26.252 38.2008 26.252 38.201 26.252C38.2013 26.252 38.2015 26.252 38.2017 26.252C38.202 26.252 38.2022 26.252 38.2024 26.252C38.2027 26.252 38.2029 26.252 38.2031 26.252C38.2034 26.252 38.2036 26.252 38.2038 26.252C38.2041 26.252 38.2043 26.252 38.2045 26.252C38.2048 26.252 38.205 26.252 38.2053 26.252C38.2055 26.252 38.2057 26.252 38.206 26.252C38.2062 26.252 38.2064 26.252 38.2067 26.252C38.2069 26.252 38.2071 26.252 38.2074 26.252C38.2076 26.252 38.2078 26.252 38.2081 26.252C38.2083 26.252 38.2085 26.252 38.2088 26.252C38.209 26.252 38.2092 26.252 38.2095 26.252C38.2097 26.252 38.2099 26.252 38.2102 26.252C38.2104 26.252 38.2106 26.252 38.2109 26.252C38.2111 26.252 38.2114 26.252 38.2116 26.252C38.2118 26.252 38.2121 26.252 38.2123 26.252C38.2125 26.252 38.2128 26.252 38.213 26.252C38.2132 26.252 38.2135 26.252 38.2137 26.252C38.2139 26.252 38.2142 26.252 38.2144 26.252C38.2146 26.252 38.2149 26.252 38.2151 26.252C38.2153 26.252 38.2156 26.252 38.2158 26.252C38.2161 26.252 38.2163 26.252 38.2165 26.252C38.2168 26.252 38.217 26.252 38.2172 26.252C38.2175 26.252 38.2177 26.252 38.2179 26.252C38.2182 26.252 38.2184 26.252 38.2186 26.252C38.2189 26.252 38.2191 26.252 38.2193 26.252C38.2196 26.252 38.2198 26.252 38.2201 26.252C38.2203 26.252 38.2205 26.252 38.2208 26.252C38.221 26.252 38.2212 26.252 38.2215 26.252C38.2217 26.252 38.2219 26.252 38.2222 26.252C38.2224 26.252 38.2226 26.252 38.2229 26.252C38.2231 26.252 38.2233 26.252 38.2236 26.252C38.2238 26.252 38.2241 26.252 38.2243 26.252C38.2245 26.252 38.2248 26.252 38.225 26.252C38.2252 26.252 38.2255 26.252 38.2257 26.252C38.2259 26.252 38.2262 26.252 38.2264 26.252C38.2266 26.252 38.2269 26.252 38.2271 26.252C38.2274 26.252 38.2276 26.252 38.2278 26.252C38.2281 26.252 38.2283 26.252 38.2285 26.252C38.2288 26.252 38.229 26.252 38.2292 26.252C38.2295 26.252 38.2297 26.252 38.2299 26.252C38.2302 26.252 38.2304 26.252 38.2307 26.252C38.2309 26.252 38.2311 26.252 38.2314 26.252C38.2316 26.252 38.2318 26.252 38.2321 26.252C38.2323 26.252 38.2325 26.252 38.2328 26.252C38.233 26.252 38.2332 26.252 38.2335 26.252C38.2337 26.252 38.234 26.252 38.2342 26.252C38.2344 26.252 38.2347 26.252 38.2349 26.252C38.2351 26.252 38.2354 26.252 38.2356 26.252C38.2358 26.252 38.2361 26.252 38.2363 26.252C38.2365 26.252 38.2368 26.252 38.237 26.252C38.2373 26.252 38.2375 26.252 38.2377 26.252C38.238 26.252 38.2382 26.252 38.2384 26.252C38.2387 26.252 38.2389 26.252 38.2391 26.252C38.2394 26.252 38.2396 26.252 38.2399 26.252C38.2401 26.252 38.2403 26.252 38.2406 26.252C38.2408 26.252 38.241 26.252 38.2413 26.252C38.2415 26.252 38.2417 26.252 38.242 26.252C38.2422 26.252 38.2425 26.252 38.2427 26.252C38.2429 26.252 38.2432 26.252 38.2434 26.252C38.2436 26.252 38.2439 26.252 38.2441 26.252C38.2443 26.252 38.2446 26.252 38.2448 26.252C38.2451 26.252 38.2453 26.252 38.2455 26.252C38.2458 26.252 38.246 26.252 38.2462 26.252C38.2465 26.252 38.2467 26.252 38.2469 26.252C38.2472 26.252 38.2474 26.252 38.2477 26.252C38.2479 26.252 38.2481 26.252 38.2484 26.252C38.2486 26.252 38.2488 26.252 38.2491 26.252C38.2493 26.252 38.2496 26.252 38.2498 26.252C38.25 26.252 38.2503 26.252 38.2505 26.252C38.2507 26.252 38.251 26.252 38.2512 26.252C38.2514 26.252 38.2517 26.252 38.2519 26.252C38.2522 26.252 38.2524 26.252 38.2526 26.252C38.2529 26.252 38.2531 26.252 38.2533 26.252C38.2536 26.252 38.2538 26.252 38.2541 26.252C38.2543 26.252 38.2545 26.252 38.2548 26.252C38.255 26.252 38.2552 26.252 38.2555 26.252C38.2557 26.252 38.2559 26.252 38.2562 26.252C38.2564 26.252 38.2567 26.252 38.2569 26.252C38.2571 26.252 38.2574 26.252 38.2576 26.252C38.2578 26.252 38.2581 26.252 38.2583 26.252C38.2586 26.252 38.2588 26.252 38.259 26.252C38.2593 26.252 38.2595 26.252 38.2597 26.252C38.26 26.252 38.2602 26.252 38.2605 26.252C38.2607 26.252 38.2609 26.252 38.2612 26.252C38.2614 26.252 38.2616 26.252 38.2619 26.252C38.2621 26.252 38.2624 26.252 38.2626 26.252C38.2628 26.252 38.2631 26.252 38.2633 26.252C38.2635 26.252 38.2638 26.252 38.264 26.252C38.2643 26.252 38.2645 26.252 38.2647 26.252C38.265 26.252 38.2652 26.252 38.2654 26.252C38.2657 26.252 38.2659 26.252 38.2662 26.252C38.2664 26.252 38.2666 26.252 38.2669 26.252C38.2671 26.252 38.2673 26.252 38.2676 26.252C38.2678 26.252 38.2681 26.252 38.2683 26.252C38.2685 26.252 38.2688 26.252 38.269 26.252C38.2692 26.252 38.2695 26.252 38.2697 26.252C38.27 26.252 38.2702 26.252 38.2704 26.252C38.2707 26.252 38.2709 26.252 38.2711 26.252C38.2714 26.252 38.2716 26.252 38.2719 26.252C38.2721 26.252 38.2723 26.252 38.2726 26.252C38.2728 26.252 38.273 26.252 38.2733 26.252C38.2735 26.252 38.2738 26.252 38.274 26.252C38.2742 26.252 38.2745 26.252 38.2747 26.252C38.2749 26.252 38.2752 26.252 38.2754 26.252C38.2757 26.252 38.2759 26.252 38.2761 26.252C38.2764 26.252 38.2766 26.252 38.2769 26.252C38.2771 26.252 38.2773 26.252 38.2776 26.252C38.2778 26.252 38.278 26.252 38.2783 26.252C38.2785 26.252 38.2788 26.252 38.279 26.252C38.2792 26.252 38.2795 26.252 38.2797 26.252C38.2799 26.252 38.2802 26.252 38.2804 26.252C38.2807 26.252 38.2809 26.252 38.2811 26.252C38.2814 26.252 38.2816 26.252 38.2819 26.252C38.2821 26.252 38.2823 26.252 38.2826 26.252C38.2828 26.252 38.283 26.252 38.2833 26.252C38.2835 26.252 38.2838 26.252 38.284 26.252C38.2842 26.252 38.2845 26.252 38.2847 26.252C38.285 26.252 38.2852 26.252 38.2854 26.252C38.2857 26.252 38.2859 26.252 38.2861 26.252C38.2864 26.252 38.2866 26.252 38.2869 26.252C38.2871 26.252 38.2873 26.252 38.2876 26.252C38.2878 26.252 38.2881 26.252 38.2883 26.252C38.2885 26.252 38.2888 26.252 38.289 26.252C38.2892 26.252 38.2895 26.252 38.2897 26.252C38.29 26.252 38.2902 26.252 38.2904 26.252C38.2907 26.252 38.2909 26.252 38.2912 26.252C38.2914 26.252 38.2916 26.252 38.2919 26.252C38.2921 26.252 38.2924 26.252 38.2926 26.252C38.2928 26.252 38.2931 26.252 38.2933 26.252C38.2935 26.252 38.2938 26.252 38.294 26.252C38.2943 26.252 38.2945 26.252 38.2947 26.252C38.295 26.252 38.2952 26.252 38.2955 26.252C38.2957 26.252 38.2959 26.252 38.2962 26.252C38.2964 26.252 38.2967 26.252 38.2969 26.252C38.2971 26.252 38.2974 26.252 38.2976 26.252C38.2978 26.252 38.2981 26.252 38.2983 26.252C38.2986 26.252 38.2988 26.252 38.299 26.252C38.2993 26.252 38.2995 26.252 38.2998 26.252C38.3 26.252 38.3002 26.252 38.3005 26.252C38.3007 26.252 38.301 26.252 38.3012 26.252C38.3014 26.252 38.3017 26.252 38.3019 26.252C38.3022 26.252 38.3024 26.252 38.3026 26.252C38.3029 26.252 38.3031 26.252 38.3033 26.252C38.3036 26.252 38.3038 26.252 38.3041 26.252C38.3043 26.252 38.3045 26.252 38.3048 26.252C38.305 26.252 38.3053 26.252 38.3055 26.252C38.3057 26.252 38.306 26.252 38.3062 26.252C38.3065 26.252 38.3067 26.252 38.3069 26.252C38.3072 26.252 38.3074 26.252 38.3077 26.252C38.3079 26.252 38.3081 26.252 38.3084 26.252C38.3086 26.252 38.3089 26.252 38.3091 26.252C38.3093 26.252 38.3096 26.252 38.3098 26.252C38.3101 26.252 38.3103 26.252 38.3105 26.252C38.3108 26.252 38.311 26.252 38.3113 26.252C38.3115 26.252 38.3117 26.252 38.312 26.252C38.3122 26.252 38.3125 26.252 38.3127 26.252C38.3129 26.252 38.3132 26.252 38.3134 26.252C38.3137 26.252 38.3139 26.252 38.3141 26.252C38.3144 26.252 38.3146 26.252 38.3149 26.252C38.3151 26.252 38.3153 26.252 38.3156 26.252C38.3158 26.252 38.3161 26.252 38.3163 26.252C38.3165 26.252 38.3168 26.252 38.317 26.252C38.3173 26.252 38.3175 26.252 38.3177 26.252C38.318 26.252 38.3182 26.252 38.3185 26.252C38.3187 26.252 38.3189 26.252 38.3192 26.252C38.3194 26.252 38.3197 26.252 38.3199 26.252C38.3201 26.252 38.3204 26.252 38.3206 26.252C38.3209 26.252 38.3211 26.252 38.3213 26.252C38.3216 26.252 38.3218 26.252 38.3221 26.252C38.3223 26.252 38.3225 26.252 38.3228 26.252C38.323 26.252 38.3233 26.252 38.3235 26.252C38.3237 26.252 38.324 26.252 38.3242 26.252C38.3245 26.252 38.3247 26.252 38.3249 26.252C38.3252 26.252 38.3254 26.252 38.3257 26.252C38.3259 26.252 38.3261 26.252 38.3264 26.252C38.3266 26.252 38.3269 26.252 38.3271 26.252C38.3273 26.252 38.3276 26.252 38.3278 26.252C38.3281 26.252 38.3283 26.252 38.3285 26.252C38.3288 26.252 38.329 26.252 38.3293 26.252C38.3295 26.252 38.3297 26.252 38.33 26.252C38.3302 26.252 38.3305 26.252 38.3307 26.252C38.331 26.252 38.3312 26.252 38.3314 26.252C38.3317 26.252 38.3319 26.252 38.3322 26.252C38.3324 26.252 38.3326 26.252 38.3329 26.252C38.3331 26.252 38.3334 26.252 38.3336 26.252C38.3338 26.252 38.3341 26.252 38.3343 26.252C38.3346 26.252 38.3348 26.252 38.335 26.252C38.3353 26.252 38.3355 26.252 38.3358 26.252C38.336 26.252 38.3362 26.252 38.3365 26.252C38.3367 26.252 38.337 26.252 38.3372 26.252C38.3375 26.252 38.3377 26.252 38.3379 26.252C38.3382 26.252 38.3384 26.252 38.3387 26.252C38.3389 26.252 38.3391 26.252 38.3394 26.252C38.3396 26.252 38.3399 26.252 38.3401 26.252C38.3403 26.252 38.3406 26.252 38.3408 26.252C38.3411 26.252 38.3413 26.252 38.3416 26.252C38.3418 26.252 38.342 26.252 38.3423 26.252C38.3425 26.252 38.3428 26.252 38.343 26.252C38.3432 26.252 38.3435 26.252 38.3437 26.252C38.344 26.252 38.3442 26.252 38.3444 26.252C38.3447 26.252 38.3449 26.252 38.3452 26.252C38.3454 26.252 38.3457 26.252 38.3459 26.252C38.3461 26.252 38.3464 26.252 38.3466 26.252C38.3469 26.252 38.3471 26.252 38.3473 26.252C38.3476 26.252 38.3478 26.252 38.3481 26.252C38.3483 26.252 38.3486 26.252 38.3488 26.252C38.349 26.252 38.3493 26.252 38.3495 26.252C38.3498 26.252 38.35 26.252 38.3502 26.252C38.3505 26.252 38.3507 26.252 38.351 26.252C38.3512 26.252 38.3515 26.252 38.3517 26.252C38.3519 26.252 38.3522 26.252 38.3524 26.252C38.3527 26.252 38.3529 26.252 38.3531 26.252C38.3534 26.252 38.3536 26.252 38.3539 26.252C38.3541 26.252 38.3544 26.252 38.3546 26.252C38.3548 26.252 38.3551 26.252 38.3553 26.252C38.3556 26.252 38.3558 26.252 38.356 26.252C38.3563 26.252 38.3565 26.252 38.3568 26.252C38.357 26.252 38.3573 26.252 38.3575 26.252C38.3577 26.252 38.358 26.252 38.3582 26.252C38.3585 26.252 38.3587 26.252 38.3589 26.252C38.3592 26.252 38.3594 26.252 38.3597 26.252C38.3599 26.252 38.3602 26.252 38.3604 26.252C38.3606 26.252 38.3609 26.252 38.3611 26.252C38.3614 26.252 38.3616 26.252 38.3619 26.252C38.3621 26.252 38.3623 26.252 38.3626 26.252C38.3628 26.252 38.3631 26.252 38.3633 26.252C38.3635 26.252 38.3638 26.252 38.364 26.252C38.3643 26.252 38.3645 26.252 38.3648 26.252C38.365 26.252 38.3652 26.252 38.3655 26.252C38.3657 26.252 38.366 26.252 38.3662 26.252C38.3665 26.252 38.3667 26.252 38.3669 26.252C38.3672 26.252 38.3674 26.252 38.3677 26.252C38.3679 26.252 38.3682 26.252 38.3684 26.252C38.3686 26.252 38.3689 26.252 38.3691 26.252C38.3694 26.252 38.3696 26.252 38.3699 26.252C38.3701 26.252 38.3703 26.252 38.3706 26.252C38.3708 26.252 38.3711 26.252 38.3713 26.252C38.3716 26.252 38.3718 26.252 38.372 26.252C38.3723 26.252 38.3725 26.252 38.3728 26.252C38.373 26.252 38.3732 26.252 38.3735 26.252C38.3737 26.252 38.374 26.252 38.3742 26.252C38.3745 26.252 38.3747 26.252 38.3749 26.252C38.3752 26.252 38.3754 26.252 38.3757 26.252C38.3759 26.252 38.3762 26.252 38.3764 26.252C38.3766 26.252 38.3769 26.252 38.3771 26.252C38.3774 26.252 38.3776 26.252 38.3779 26.252C38.3781 26.252 38.3783 26.252 38.3786 26.252C38.3788 26.252 38.3791 26.252 38.3793 26.252C38.3796 26.252 38.3798 26.252 38.38 26.252C38.3803 26.252 38.3805 26.252 38.3808 26.252C38.381 26.252 38.3813 26.252 38.3815 26.252C38.3818 26.252 38.382 26.252 38.3822 26.252C38.3825 26.252 38.3827 26.252 38.383 26.252C38.3832 26.252 38.3835 26.252 38.3837 26.252C38.3839 26.252 38.3842 26.252 38.3844 26.252C38.3847 26.252 38.3849 26.252 38.3852 26.252C38.3854 26.252 38.3856 26.252 38.3859 26.252C38.3861 26.252 38.3864 26.252 38.3866 26.252C38.3869 26.252 38.3871 26.252 38.3873 26.252C38.3876 26.252 38.3878 26.252 38.3881 26.252C38.3883 26.252 38.3886 26.252 38.3888 26.252C38.389 26.252 38.3893 26.252 38.3895 26.252C38.3898 26.252 38.39 26.252 38.3903 26.252C38.3905 26.252 38.3908 26.252 38.391 26.252C38.3912 26.252 38.3915 26.252 38.3917 26.252C38.392 26.252 38.3922 26.252 38.3925 26.252C38.3927 26.252 38.3929 26.252 38.3932 26.252C38.3934 26.252 38.3937 26.252 38.3939 26.252C38.3942 26.252 38.3944 26.252 38.3947 26.252C38.3949 26.252 38.3951 26.252 38.3954 26.252C38.3956 26.252 38.3959 26.252 38.3961 26.252C38.3964 26.252 38.3966 26.252 38.3968 26.252C38.3971 26.252 38.3973 26.252 38.3976 26.252C38.3978 26.252 38.3981 26.252 38.3983 26.252C38.3986 26.252 38.3988 26.252 38.399 26.252C38.3993 26.252 38.3995 26.252 38.3998 26.252C38.4 26.252 38.4003 26.252 38.4005 26.252C38.4007 26.252 38.401 26.252 38.4012 26.252C38.4015 26.252 38.4017 26.252 38.402 26.252C38.4022 26.252 38.4025 26.252 38.4027 26.252C38.4029 26.252 38.4032 26.252 38.4034 26.252C38.4037 26.252 38.4039 26.252 38.4042 26.252C38.4044 26.252 38.4047 26.252 38.4049 26.252C38.4051 26.252 38.4054 26.252 38.4056 26.252C38.4059 26.252 38.4061 26.252 38.4064 26.252C38.4066 26.252 38.4069 26.252 38.4071 26.252C38.4073 26.252 38.4076 26.252 38.4078 26.252C38.4081 26.252 38.4083 26.252 38.4086 26.252C38.4088 26.252 38.4091 26.252 38.4093 26.252C38.4095 26.252 38.4098 26.252 38.41 26.252C38.4103 26.252 38.4105 26.252 38.4108 26.252C38.411 26.252 38.4113 26.252 38.4115 26.252C38.4117 26.252 38.412 26.252 38.4122 26.252C38.4125 26.252 38.4127 26.252 38.413 26.252C38.4132 26.252 38.4135 26.252 38.4137 26.252C38.4139 26.252 38.4142 26.252 38.4144 26.252C38.4147 26.252 38.4149 26.252 38.4152 26.252C38.4154 26.252 38.4157 26.252 38.4159 26.252C38.4161 26.252 38.4164 26.252 38.4166 26.252C38.4169 26.252 38.4171 26.252 38.4174 26.252C38.4176 26.252 38.4179 26.252 38.4181 26.252C38.4183 26.252 38.4186 26.252 38.4188 26.252C38.4191 26.252 38.4193 26.252 38.4196 26.252C38.4198 26.252 38.4201 26.252 38.4203 26.252C38.4206 26.252 38.4208 26.252 38.421 26.252C38.4213 26.252 38.4215 26.252 38.4218 26.252C38.422 26.252 38.4223 26.252 38.4225 26.252C38.4228 26.252 38.423 26.252 38.4232 26.252C38.4235 26.252 38.4237 26.252 38.424 26.252C38.4242 26.252 38.4245 26.252 38.4247 26.252C38.425 26.252 38.4252 26.252 38.4255 26.252C38.4257 26.252 38.4259 26.252 38.4262 26.252C38.4264 26.252 38.4267 26.252 38.4269 26.252C38.4272 26.252 38.4274 26.252 38.4277 26.252C38.4279 26.252 38.4282 26.252 38.4284 26.252C38.4286 26.252 38.4289 26.252 38.4291 26.252C38.4294 26.252 38.4296 26.252 38.4299 26.252C38.4301 26.252 38.4304 26.252 38.4306 26.252C38.4309 26.252 38.4311 26.252 38.4313 26.252C38.4316 26.252 38.4318 26.252 38.4321 26.252C38.4323 26.252 38.4326 26.252 38.4328 26.252C38.4331 26.252 38.4333 26.252 38.4336 26.252C38.4338 26.252 38.434 26.252 38.4343 26.252C38.4345 26.252 38.4348 26.252 38.435 26.252C38.4353 26.252 38.4355 26.252 38.4358 26.252C38.436 26.252 38.4363 26.252 38.4365 26.252C38.4367 26.252 38.437 26.252 38.4372 26.252C38.4375 26.252 38.4377 26.252 38.438 26.252C38.4382 26.252 38.4385 26.252 38.4387 26.252C38.439 26.252 38.4392 26.252 38.4394 26.252C38.4397 26.252 38.4399 26.252 38.4402 26.252C38.4404 26.252 38.4407 26.252 38.4409 26.252C38.4412 26.252 38.4414 26.252 38.4417 26.252C38.4419 26.252 38.4422 26.252 38.4424 26.252C38.4426 26.252 38.4429 26.252 38.4431 26.252C38.4434 26.252 38.4436 26.252 38.4439 26.252C38.4441 26.252 38.4444 26.252 38.4446 26.252C38.4449 26.252 38.4451 26.252 38.4454 26.252C38.4456 26.252 38.4458 26.252 38.4461 26.252C38.4463 26.252 38.4466 26.252 38.4468 26.252C38.4471 26.252 38.4473 26.252 38.4476 26.252C38.4478 26.252 38.4481 26.252 38.4483 26.252C38.4486 26.252 38.4488 26.252 38.449 26.252C38.4493 26.252 38.4495 26.252 38.4498 26.252C38.45 26.252 38.4503 26.252 38.4505 26.252C38.4508 26.252 38.451 26.252 38.4513 26.252C38.4515 26.252 38.4518 26.252 38.452 26.252C38.4522 26.252 38.4525 26.252 38.4527 26.252C38.453 26.252 38.4532 26.252 38.4535 26.252C38.4537 26.252 38.454 26.252 38.4542 26.252C38.4545 26.252 38.4547 26.252 38.455 26.252C38.4552 26.252 38.4555 26.252 38.4557 26.252C38.4559 26.252 38.4562 26.252 38.4564 26.252C38.4567 26.252 38.4569 26.252 38.4572 26.252C38.4574 26.252 38.4577 26.252 38.4579 26.252C38.4582 26.252 38.4584 26.252 38.4587 26.252C38.4589 26.252 38.4592 26.252 38.4594 26.252C38.4596 26.252 38.4599 26.252 38.4601 26.252C38.4604 26.252 38.4606 26.252 38.4609 26.252C38.4611 26.252 38.4614 26.252 38.4616 26.252C38.4619 26.252 38.4621 26.252 38.4624 26.252C38.4626 26.252 38.4629 26.252 38.4631 26.252C38.4634 26.252 38.4636 26.252 38.4638 26.252C38.4641 26.252 38.4643 26.252 38.4646 26.252C38.4648 26.252 38.4651 26.252 38.4653 26.252C38.4656 26.252 38.4658 26.252 38.4661 26.252C38.4663 26.252 38.4666 26.252 38.4668 26.252C38.4671 26.252 38.4673 26.252 38.4676 26.252C38.4678 26.252 38.468 26.252 38.4683 26.252C38.4685 26.252 38.4688 26.252 38.469 26.252C38.4693 26.252 38.4695 26.252 38.4698 26.252C38.47 26.252 38.4703 26.252 38.4705 26.252C38.4708 26.252 38.471 26.252 38.4713 26.252C38.4715 26.252 38.4718 26.252 38.472 26.252C38.4723 26.252 38.4725 26.252 38.4727 26.252C38.473 26.252 38.4732 26.252 38.4735 26.252C38.4737 26.252 38.474 26.252 38.4742 26.252C38.4745 26.252 38.4747 26.252 38.475 26.252C38.4752 26.252 38.4755 26.252 38.4757 26.252C38.476 26.252 38.4762 26.252 38.4765 26.252C38.4767 26.252 38.477 26.252 38.4772 26.252C38.4774 26.252 38.4777 26.252 38.4779 26.252C38.4782 26.252 38.4784 26.252 38.4787 26.252C38.4789 26.252 38.4792 26.252 38.4794 26.252C38.4797 26.252 38.4799 26.252 38.4802 26.252C38.4804 26.252 38.4807 26.252 38.4809 26.252C38.4812 26.252 38.4814 26.252 38.4817 26.252C38.4819 26.252 38.4822 26.252 38.4824 26.252C38.4827 26.252 38.4829 26.252 38.4831 26.252C38.4834 26.252 38.4836 26.252 38.4839 26.252C38.4841 26.252 38.4844 26.252 38.4846 26.252C38.4849 26.252 38.4851 26.252 38.4854 26.252C38.4856 26.252 38.4859 26.252 38.4861 26.252C38.4864 26.252 38.4866 26.252 38.4869 26.252C38.4871 26.252 38.4874 26.252 38.4876 26.252C38.4879 26.252 38.4881 26.252 38.4884 26.252C38.4886 26.252 38.4889 26.252 38.4891 26.252C38.4893 26.252 38.4896 26.252 38.4898 26.252C38.4901 26.252 38.4903 26.252 38.4906 26.252C38.4908 26.252 38.4911 26.252 38.4913 26.252C38.4916 26.252 38.4918 26.252 38.4921 26.252C38.4923 26.252 38.4926 26.252 38.4928 26.252C38.4931 26.252 38.4933 26.252 38.4936 26.252C38.4938 26.252 38.4941 26.252 38.4943 26.252C38.4946 26.252 38.4948 26.252 38.4951 26.252C38.4953 26.252 38.4956 26.252 38.4958 26.252C38.4961 26.252 38.4963 26.252 38.4966 26.252C38.4968 26.252 38.497 26.252 38.4973 26.252C38.4975 26.252 38.4978 26.252 38.498 26.252C38.4983 26.252 38.4985 26.252 38.4988 26.252C38.499 26.252 38.4993 26.252 38.4995 26.252C38.4998 26.252 38.5 26.252 38.5003 26.252C38.5005 26.252 38.5008 26.252 38.501 26.252C38.5013 26.252 38.5015 26.252 38.5018 26.252C38.502 26.252 38.5023 26.252 38.5025 26.252C38.5028 26.252 38.503 26.252 38.5033 26.252C38.5035 26.252 38.5038 26.252 38.504 26.252C38.5043 26.252 38.5045 26.252 38.5048 26.252C38.505 26.252 38.5053 26.252 38.5055 26.252C38.5058 26.252 38.506 26.252 38.5063 26.252C38.5065 26.252 38.5068 26.252 38.507 26.252C38.5072 26.252 38.5075 26.252 38.5077 26.252C38.508 26.252 38.5082 26.252 38.5085 26.252C38.5087 26.252 38.509 26.252 38.5092 26.252C38.5095 26.252 38.5097 26.252 38.51 26.252C38.5102 26.252 38.5105 26.252 38.5107 26.252C38.511 26.252 38.5112 26.252 38.5115 26.252V20.252C38.5112 20.252 38.511 20.252 38.5107 20.252C38.5105 20.252 38.5102 20.252 38.51 20.252C38.5097 20.252 38.5095 20.252 38.5092 20.252C38.509 20.252 38.5087 20.252 38.5085 20.252C38.5082 20.252 38.508 20.252 38.5077 20.252C38.5075 20.252 38.5072 20.252 38.507 20.252C38.5068 20.252 38.5065 20.252 38.5063 20.252C38.506 20.252 38.5058 20.252 38.5055 20.252C38.5053 20.252 38.505 20.252 38.5048 20.252C38.5045 20.252 38.5043 20.252 38.504 20.252C38.5038 20.252 38.5035 20.252 38.5033 20.252C38.503 20.252 38.5028 20.252 38.5025 20.252C38.5023 20.252 38.502 20.252 38.5018 20.252C38.5015 20.252 38.5013 20.252 38.501 20.252C38.5008 20.252 38.5005 20.252 38.5003 20.252C38.5 20.252 38.4998 20.252 38.4995 20.252C38.4993 20.252 38.499 20.252 38.4988 20.252C38.4985 20.252 38.4983 20.252 38.498 20.252C38.4978 20.252 38.4975 20.252 38.4973 20.252C38.497 20.252 38.4968 20.252 38.4966 20.252C38.4963 20.252 38.4961 20.252 38.4958 20.252C38.4956 20.252 38.4953 20.252 38.4951 20.252C38.4948 20.252 38.4946 20.252 38.4943 20.252C38.4941 20.252 38.4938 20.252 38.4936 20.252C38.4933 20.252 38.4931 20.252 38.4928 20.252C38.4926 20.252 38.4923 20.252 38.4921 20.252C38.4918 20.252 38.4916 20.252 38.4913 20.252C38.4911 20.252 38.4908 20.252 38.4906 20.252C38.4903 20.252 38.4901 20.252 38.4898 20.252C38.4896 20.252 38.4893 20.252 38.4891 20.252C38.4889 20.252 38.4886 20.252 38.4884 20.252C38.4881 20.252 38.4879 20.252 38.4876 20.252C38.4874 20.252 38.4871 20.252 38.4869 20.252C38.4866 20.252 38.4864 20.252 38.4861 20.252C38.4859 20.252 38.4856 20.252 38.4854 20.252C38.4851 20.252 38.4849 20.252 38.4846 20.252C38.4844 20.252 38.4841 20.252 38.4839 20.252C38.4836 20.252 38.4834 20.252 38.4831 20.252C38.4829 20.252 38.4827 20.252 38.4824 20.252C38.4822 20.252 38.4819 20.252 38.4817 20.252C38.4814 20.252 38.4812 20.252 38.4809 20.252C38.4807 20.252 38.4804 20.252 38.4802 20.252C38.4799 20.252 38.4797 20.252 38.4794 20.252C38.4792 20.252 38.4789 20.252 38.4787 20.252C38.4784 20.252 38.4782 20.252 38.4779 20.252C38.4777 20.252 38.4774 20.252 38.4772 20.252C38.477 20.252 38.4767 20.252 38.4765 20.252C38.4762 20.252 38.476 20.252 38.4757 20.252C38.4755 20.252 38.4752 20.252 38.475 20.252C38.4747 20.252 38.4745 20.252 38.4742 20.252C38.474 20.252 38.4737 20.252 38.4735 20.252C38.4732 20.252 38.473 20.252 38.4727 20.252C38.4725 20.252 38.4723 20.252 38.472 20.252C38.4718 20.252 38.4715 20.252 38.4713 20.252C38.471 20.252 38.4708 20.252 38.4705 20.252C38.4703 20.252 38.47 20.252 38.4698 20.252C38.4695 20.252 38.4693 20.252 38.469 20.252C38.4688 20.252 38.4685 20.252 38.4683 20.252C38.468 20.252 38.4678 20.252 38.4676 20.252C38.4673 20.252 38.4671 20.252 38.4668 20.252C38.4666 20.252 38.4663 20.252 38.4661 20.252C38.4658 20.252 38.4656 20.252 38.4653 20.252C38.4651 20.252 38.4648 20.252 38.4646 20.252C38.4643 20.252 38.4641 20.252 38.4638 20.252C38.4636 20.252 38.4634 20.252 38.4631 20.252C38.4629 20.252 38.4626 20.252 38.4624 20.252C38.4621 20.252 38.4619 20.252 38.4616 20.252C38.4614 20.252 38.4611 20.252 38.4609 20.252C38.4606 20.252 38.4604 20.252 38.4601 20.252C38.4599 20.252 38.4596 20.252 38.4594 20.252C38.4592 20.252 38.4589 20.252 38.4587 20.252C38.4584 20.252 38.4582 20.252 38.4579 20.252C38.4577 20.252 38.4574 20.252 38.4572 20.252C38.4569 20.252 38.4567 20.252 38.4564 20.252C38.4562 20.252 38.4559 20.252 38.4557 20.252C38.4555 20.252 38.4552 20.252 38.455 20.252C38.4547 20.252 38.4545 20.252 38.4542 20.252C38.454 20.252 38.4537 20.252 38.4535 20.252C38.4532 20.252 38.453 20.252 38.4527 20.252C38.4525 20.252 38.4522 20.252 38.452 20.252C38.4518 20.252 38.4515 20.252 38.4513 20.252C38.451 20.252 38.4508 20.252 38.4505 20.252C38.4503 20.252 38.45 20.252 38.4498 20.252C38.4495 20.252 38.4493 20.252 38.449 20.252C38.4488 20.252 38.4486 20.252 38.4483 20.252C38.4481 20.252 38.4478 20.252 38.4476 20.252C38.4473 20.252 38.4471 20.252 38.4468 20.252C38.4466 20.252 38.4463 20.252 38.4461 20.252C38.4458 20.252 38.4456 20.252 38.4454 20.252C38.4451 20.252 38.4449 20.252 38.4446 20.252C38.4444 20.252 38.4441 20.252 38.4439 20.252C38.4436 20.252 38.4434 20.252 38.4431 20.252C38.4429 20.252 38.4426 20.252 38.4424 20.252C38.4422 20.252 38.4419 20.252 38.4417 20.252C38.4414 20.252 38.4412 20.252 38.4409 20.252C38.4407 20.252 38.4404 20.252 38.4402 20.252C38.4399 20.252 38.4397 20.252 38.4394 20.252C38.4392 20.252 38.439 20.252 38.4387 20.252C38.4385 20.252 38.4382 20.252 38.438 20.252C38.4377 20.252 38.4375 20.252 38.4372 20.252C38.437 20.252 38.4367 20.252 38.4365 20.252C38.4363 20.252 38.436 20.252 38.4358 20.252C38.4355 20.252 38.4353 20.252 38.435 20.252C38.4348 20.252 38.4345 20.252 38.4343 20.252C38.434 20.252 38.4338 20.252 38.4336 20.252C38.4333 20.252 38.4331 20.252 38.4328 20.252C38.4326 20.252 38.4323 20.252 38.4321 20.252C38.4318 20.252 38.4316 20.252 38.4313 20.252C38.4311 20.252 38.4309 20.252 38.4306 20.252C38.4304 20.252 38.4301 20.252 38.4299 20.252C38.4296 20.252 38.4294 20.252 38.4291 20.252C38.4289 20.252 38.4286 20.252 38.4284 20.252C38.4282 20.252 38.4279 20.252 38.4277 20.252C38.4274 20.252 38.4272 20.252 38.4269 20.252C38.4267 20.252 38.4264 20.252 38.4262 20.252C38.4259 20.252 38.4257 20.252 38.4255 20.252C38.4252 20.252 38.425 20.252 38.4247 20.252C38.4245 20.252 38.4242 20.252 38.424 20.252C38.4237 20.252 38.4235 20.252 38.4232 20.252C38.423 20.252 38.4228 20.252 38.4225 20.252C38.4223 20.252 38.422 20.252 38.4218 20.252C38.4215 20.252 38.4213 20.252 38.421 20.252C38.4208 20.252 38.4206 20.252 38.4203 20.252C38.4201 20.252 38.4198 20.252 38.4196 20.252C38.4193 20.252 38.4191 20.252 38.4188 20.252C38.4186 20.252 38.4183 20.252 38.4181 20.252C38.4179 20.252 38.4176 20.252 38.4174 20.252C38.4171 20.252 38.4169 20.252 38.4166 20.252C38.4164 20.252 38.4161 20.252 38.4159 20.252C38.4157 20.252 38.4154 20.252 38.4152 20.252C38.4149 20.252 38.4147 20.252 38.4144 20.252C38.4142 20.252 38.4139 20.252 38.4137 20.252C38.4135 20.252 38.4132 20.252 38.413 20.252C38.4127 20.252 38.4125 20.252 38.4122 20.252C38.412 20.252 38.4117 20.252 38.4115 20.252C38.4113 20.252 38.411 20.252 38.4108 20.252C38.4105 20.252 38.4103 20.252 38.41 20.252C38.4098 20.252 38.4095 20.252 38.4093 20.252C38.4091 20.252 38.4088 20.252 38.4086 20.252C38.4083 20.252 38.4081 20.252 38.4078 20.252C38.4076 20.252 38.4073 20.252 38.4071 20.252C38.4069 20.252 38.4066 20.252 38.4064 20.252C38.4061 20.252 38.4059 20.252 38.4056 20.252C38.4054 20.252 38.4051 20.252 38.4049 20.252C38.4047 20.252 38.4044 20.252 38.4042 20.252C38.4039 20.252 38.4037 20.252 38.4034 20.252C38.4032 20.252 38.4029 20.252 38.4027 20.252C38.4025 20.252 38.4022 20.252 38.402 20.252C38.4017 20.252 38.4015 20.252 38.4012 20.252C38.401 20.252 38.4007 20.252 38.4005 20.252C38.4003 20.252 38.4 20.252 38.3998 20.252C38.3995 20.252 38.3993 20.252 38.399 20.252C38.3988 20.252 38.3986 20.252 38.3983 20.252C38.3981 20.252 38.3978 20.252 38.3976 20.252C38.3973 20.252 38.3971 20.252 38.3968 20.252C38.3966 20.252 38.3964 20.252 38.3961 20.252C38.3959 20.252 38.3956 20.252 38.3954 20.252C38.3951 20.252 38.3949 20.252 38.3947 20.252C38.3944 20.252 38.3942 20.252 38.3939 20.252C38.3937 20.252 38.3934 20.252 38.3932 20.252C38.3929 20.252 38.3927 20.252 38.3925 20.252C38.3922 20.252 38.392 20.252 38.3917 20.252C38.3915 20.252 38.3912 20.252 38.391 20.252C38.3908 20.252 38.3905 20.252 38.3903 20.252C38.39 20.252 38.3898 20.252 38.3895 20.252C38.3893 20.252 38.389 20.252 38.3888 20.252C38.3886 20.252 38.3883 20.252 38.3881 20.252C38.3878 20.252 38.3876 20.252 38.3873 20.252C38.3871 20.252 38.3869 20.252 38.3866 20.252C38.3864 20.252 38.3861 20.252 38.3859 20.252C38.3856 20.252 38.3854 20.252 38.3852 20.252C38.3849 20.252 38.3847 20.252 38.3844 20.252C38.3842 20.252 38.3839 20.252 38.3837 20.252C38.3835 20.252 38.3832 20.252 38.383 20.252C38.3827 20.252 38.3825 20.252 38.3822 20.252C38.382 20.252 38.3818 20.252 38.3815 20.252C38.3813 20.252 38.381 20.252 38.3808 20.252C38.3805 20.252 38.3803 20.252 38.38 20.252C38.3798 20.252 38.3796 20.252 38.3793 20.252C38.3791 20.252 38.3788 20.252 38.3786 20.252C38.3783 20.252 38.3781 20.252 38.3779 20.252C38.3776 20.252 38.3774 20.252 38.3771 20.252C38.3769 20.252 38.3766 20.252 38.3764 20.252C38.3762 20.252 38.3759 20.252 38.3757 20.252C38.3754 20.252 38.3752 20.252 38.3749 20.252C38.3747 20.252 38.3745 20.252 38.3742 20.252C38.374 20.252 38.3737 20.252 38.3735 20.252C38.3732 20.252 38.373 20.252 38.3728 20.252C38.3725 20.252 38.3723 20.252 38.372 20.252C38.3718 20.252 38.3716 20.252 38.3713 20.252C38.3711 20.252 38.3708 20.252 38.3706 20.252C38.3703 20.252 38.3701 20.252 38.3699 20.252C38.3696 20.252 38.3694 20.252 38.3691 20.252C38.3689 20.252 38.3686 20.252 38.3684 20.252C38.3682 20.252 38.3679 20.252 38.3677 20.252C38.3674 20.252 38.3672 20.252 38.3669 20.252C38.3667 20.252 38.3665 20.252 38.3662 20.252C38.366 20.252 38.3657 20.252 38.3655 20.252C38.3652 20.252 38.365 20.252 38.3648 20.252C38.3645 20.252 38.3643 20.252 38.364 20.252C38.3638 20.252 38.3635 20.252 38.3633 20.252C38.3631 20.252 38.3628 20.252 38.3626 20.252C38.3623 20.252 38.3621 20.252 38.3619 20.252C38.3616 20.252 38.3614 20.252 38.3611 20.252C38.3609 20.252 38.3606 20.252 38.3604 20.252C38.3602 20.252 38.3599 20.252 38.3597 20.252C38.3594 20.252 38.3592 20.252 38.3589 20.252C38.3587 20.252 38.3585 20.252 38.3582 20.252C38.358 20.252 38.3577 20.252 38.3575 20.252C38.3573 20.252 38.357 20.252 38.3568 20.252C38.3565 20.252 38.3563 20.252 38.356 20.252C38.3558 20.252 38.3556 20.252 38.3553 20.252C38.3551 20.252 38.3548 20.252 38.3546 20.252C38.3544 20.252 38.3541 20.252 38.3539 20.252C38.3536 20.252 38.3534 20.252 38.3531 20.252C38.3529 20.252 38.3527 20.252 38.3524 20.252C38.3522 20.252 38.3519 20.252 38.3517 20.252C38.3515 20.252 38.3512 20.252 38.351 20.252C38.3507 20.252 38.3505 20.252 38.3502 20.252C38.35 20.252 38.3498 20.252 38.3495 20.252C38.3493 20.252 38.349 20.252 38.3488 20.252C38.3486 20.252 38.3483 20.252 38.3481 20.252C38.3478 20.252 38.3476 20.252 38.3473 20.252C38.3471 20.252 38.3469 20.252 38.3466 20.252C38.3464 20.252 38.3461 20.252 38.3459 20.252C38.3457 20.252 38.3454 20.252 38.3452 20.252C38.3449 20.252 38.3447 20.252 38.3444 20.252C38.3442 20.252 38.344 20.252 38.3437 20.252C38.3435 20.252 38.3432 20.252 38.343 20.252C38.3428 20.252 38.3425 20.252 38.3423 20.252C38.342 20.252 38.3418 20.252 38.3416 20.252C38.3413 20.252 38.3411 20.252 38.3408 20.252C38.3406 20.252 38.3403 20.252 38.3401 20.252C38.3399 20.252 38.3396 20.252 38.3394 20.252C38.3391 20.252 38.3389 20.252 38.3387 20.252C38.3384 20.252 38.3382 20.252 38.3379 20.252C38.3377 20.252 38.3375 20.252 38.3372 20.252C38.337 20.252 38.3367 20.252 38.3365 20.252C38.3362 20.252 38.336 20.252 38.3358 20.252C38.3355 20.252 38.3353 20.252 38.335 20.252C38.3348 20.252 38.3346 20.252 38.3343 20.252C38.3341 20.252 38.3338 20.252 38.3336 20.252C38.3334 20.252 38.3331 20.252 38.3329 20.252C38.3326 20.252 38.3324 20.252 38.3322 20.252C38.3319 20.252 38.3317 20.252 38.3314 20.252C38.3312 20.252 38.331 20.252 38.3307 20.252C38.3305 20.252 38.3302 20.252 38.33 20.252C38.3297 20.252 38.3295 20.252 38.3293 20.252C38.329 20.252 38.3288 20.252 38.3285 20.252C38.3283 20.252 38.3281 20.252 38.3278 20.252C38.3276 20.252 38.3273 20.252 38.3271 20.252C38.3269 20.252 38.3266 20.252 38.3264 20.252C38.3261 20.252 38.3259 20.252 38.3257 20.252C38.3254 20.252 38.3252 20.252 38.3249 20.252C38.3247 20.252 38.3245 20.252 38.3242 20.252C38.324 20.252 38.3237 20.252 38.3235 20.252C38.3233 20.252 38.323 20.252 38.3228 20.252C38.3225 20.252 38.3223 20.252 38.3221 20.252C38.3218 20.252 38.3216 20.252 38.3213 20.252C38.3211 20.252 38.3209 20.252 38.3206 20.252C38.3204 20.252 38.3201 20.252 38.3199 20.252C38.3197 20.252 38.3194 20.252 38.3192 20.252C38.3189 20.252 38.3187 20.252 38.3185 20.252C38.3182 20.252 38.318 20.252 38.3177 20.252C38.3175 20.252 38.3173 20.252 38.317 20.252C38.3168 20.252 38.3165 20.252 38.3163 20.252C38.3161 20.252 38.3158 20.252 38.3156 20.252C38.3153 20.252 38.3151 20.252 38.3149 20.252C38.3146 20.252 38.3144 20.252 38.3141 20.252C38.3139 20.252 38.3137 20.252 38.3134 20.252C38.3132 20.252 38.3129 20.252 38.3127 20.252C38.3125 20.252 38.3122 20.252 38.312 20.252C38.3117 20.252 38.3115 20.252 38.3113 20.252C38.311 20.252 38.3108 20.252 38.3105 20.252C38.3103 20.252 38.3101 20.252 38.3098 20.252C38.3096 20.252 38.3093 20.252 38.3091 20.252C38.3089 20.252 38.3086 20.252 38.3084 20.252C38.3081 20.252 38.3079 20.252 38.3077 20.252C38.3074 20.252 38.3072 20.252 38.3069 20.252C38.3067 20.252 38.3065 20.252 38.3062 20.252C38.306 20.252 38.3057 20.252 38.3055 20.252C38.3053 20.252 38.305 20.252 38.3048 20.252C38.3045 20.252 38.3043 20.252 38.3041 20.252C38.3038 20.252 38.3036 20.252 38.3033 20.252C38.3031 20.252 38.3029 20.252 38.3026 20.252C38.3024 20.252 38.3022 20.252 38.3019 20.252C38.3017 20.252 38.3014 20.252 38.3012 20.252C38.301 20.252 38.3007 20.252 38.3005 20.252C38.3002 20.252 38.3 20.252 38.2998 20.252C38.2995 20.252 38.2993 20.252 38.299 20.252C38.2988 20.252 38.2986 20.252 38.2983 20.252C38.2981 20.252 38.2978 20.252 38.2976 20.252C38.2974 20.252 38.2971 20.252 38.2969 20.252C38.2967 20.252 38.2964 20.252 38.2962 20.252C38.2959 20.252 38.2957 20.252 38.2955 20.252C38.2952 20.252 38.295 20.252 38.2947 20.252C38.2945 20.252 38.2943 20.252 38.294 20.252C38.2938 20.252 38.2935 20.252 38.2933 20.252C38.2931 20.252 38.2928 20.252 38.2926 20.252C38.2924 20.252 38.2921 20.252 38.2919 20.252C38.2916 20.252 38.2914 20.252 38.2912 20.252C38.2909 20.252 38.2907 20.252 38.2904 20.252C38.2902 20.252 38.29 20.252 38.2897 20.252C38.2895 20.252 38.2892 20.252 38.289 20.252C38.2888 20.252 38.2885 20.252 38.2883 20.252C38.2881 20.252 38.2878 20.252 38.2876 20.252C38.2873 20.252 38.2871 20.252 38.2869 20.252C38.2866 20.252 38.2864 20.252 38.2861 20.252C38.2859 20.252 38.2857 20.252 38.2854 20.252C38.2852 20.252 38.285 20.252 38.2847 20.252C38.2845 20.252 38.2842 20.252 38.284 20.252C38.2838 20.252 38.2835 20.252 38.2833 20.252C38.283 20.252 38.2828 20.252 38.2826 20.252C38.2823 20.252 38.2821 20.252 38.2819 20.252C38.2816 20.252 38.2814 20.252 38.2811 20.252C38.2809 20.252 38.2807 20.252 38.2804 20.252C38.2802 20.252 38.2799 20.252 38.2797 20.252C38.2795 20.252 38.2792 20.252 38.279 20.252C38.2788 20.252 38.2785 20.252 38.2783 20.252C38.278 20.252 38.2778 20.252 38.2776 20.252C38.2773 20.252 38.2771 20.252 38.2769 20.252C38.2766 20.252 38.2764 20.252 38.2761 20.252C38.2759 20.252 38.2757 20.252 38.2754 20.252C38.2752 20.252 38.2749 20.252 38.2747 20.252C38.2745 20.252 38.2742 20.252 38.274 20.252C38.2738 20.252 38.2735 20.252 38.2733 20.252C38.273 20.252 38.2728 20.252 38.2726 20.252C38.2723 20.252 38.2721 20.252 38.2719 20.252C38.2716 20.252 38.2714 20.252 38.2711 20.252C38.2709 20.252 38.2707 20.252 38.2704 20.252C38.2702 20.252 38.27 20.252 38.2697 20.252C38.2695 20.252 38.2692 20.252 38.269 20.252C38.2688 20.252 38.2685 20.252 38.2683 20.252C38.2681 20.252 38.2678 20.252 38.2676 20.252C38.2673 20.252 38.2671 20.252 38.2669 20.252C38.2666 20.252 38.2664 20.252 38.2662 20.252C38.2659 20.252 38.2657 20.252 38.2654 20.252C38.2652 20.252 38.265 20.252 38.2647 20.252C38.2645 20.252 38.2643 20.252 38.264 20.252C38.2638 20.252 38.2635 20.252 38.2633 20.252C38.2631 20.252 38.2628 20.252 38.2626 20.252C38.2624 20.252 38.2621 20.252 38.2619 20.252C38.2616 20.252 38.2614 20.252 38.2612 20.252C38.2609 20.252 38.2607 20.252 38.2605 20.252C38.2602 20.252 38.26 20.252 38.2597 20.252C38.2595 20.252 38.2593 20.252 38.259 20.252C38.2588 20.252 38.2586 20.252 38.2583 20.252C38.2581 20.252 38.2578 20.252 38.2576 20.252C38.2574 20.252 38.2571 20.252 38.2569 20.252C38.2567 20.252 38.2564 20.252 38.2562 20.252C38.2559 20.252 38.2557 20.252 38.2555 20.252C38.2552 20.252 38.255 20.252 38.2548 20.252C38.2545 20.252 38.2543 20.252 38.2541 20.252C38.2538 20.252 38.2536 20.252 38.2533 20.252C38.2531 20.252 38.2529 20.252 38.2526 20.252C38.2524 20.252 38.2522 20.252 38.2519 20.252C38.2517 20.252 38.2514 20.252 38.2512 20.252C38.251 20.252 38.2507 20.252 38.2505 20.252C38.2503 20.252 38.25 20.252 38.2498 20.252C38.2496 20.252 38.2493 20.252 38.2491 20.252C38.2488 20.252 38.2486 20.252 38.2484 20.252C38.2481 20.252 38.2479 20.252 38.2477 20.252C38.2474 20.252 38.2472 20.252 38.2469 20.252C38.2467 20.252 38.2465 20.252 38.2462 20.252C38.246 20.252 38.2458 20.252 38.2455 20.252C38.2453 20.252 38.2451 20.252 38.2448 20.252C38.2446 20.252 38.2443 20.252 38.2441 20.252C38.2439 20.252 38.2436 20.252 38.2434 20.252C38.2432 20.252 38.2429 20.252 38.2427 20.252C38.2425 20.252 38.2422 20.252 38.242 20.252C38.2417 20.252 38.2415 20.252 38.2413 20.252C38.241 20.252 38.2408 20.252 38.2406 20.252C38.2403 20.252 38.2401 20.252 38.2399 20.252C38.2396 20.252 38.2394 20.252 38.2391 20.252C38.2389 20.252 38.2387 20.252 38.2384 20.252C38.2382 20.252 38.238 20.252 38.2377 20.252C38.2375 20.252 38.2373 20.252 38.237 20.252C38.2368 20.252 38.2365 20.252 38.2363 20.252C38.2361 20.252 38.2358 20.252 38.2356 20.252C38.2354 20.252 38.2351 20.252 38.2349 20.252C38.2347 20.252 38.2344 20.252 38.2342 20.252C38.234 20.252 38.2337 20.252 38.2335 20.252C38.2332 20.252 38.233 20.252 38.2328 20.252C38.2325 20.252 38.2323 20.252 38.2321 20.252C38.2318 20.252 38.2316 20.252 38.2314 20.252C38.2311 20.252 38.2309 20.252 38.2307 20.252C38.2304 20.252 38.2302 20.252 38.2299 20.252C38.2297 20.252 38.2295 20.252 38.2292 20.252C38.229 20.252 38.2288 20.252 38.2285 20.252C38.2283 20.252 38.2281 20.252 38.2278 20.252C38.2276 20.252 38.2274 20.252 38.2271 20.252C38.2269 20.252 38.2266 20.252 38.2264 20.252C38.2262 20.252 38.2259 20.252 38.2257 20.252C38.2255 20.252 38.2252 20.252 38.225 20.252C38.2248 20.252 38.2245 20.252 38.2243 20.252C38.2241 20.252 38.2238 20.252 38.2236 20.252C38.2233 20.252 38.2231 20.252 38.2229 20.252C38.2226 20.252 38.2224 20.252 38.2222 20.252C38.2219 20.252 38.2217 20.252 38.2215 20.252C38.2212 20.252 38.221 20.252 38.2208 20.252C38.2205 20.252 38.2203 20.252 38.2201 20.252C38.2198 20.252 38.2196 20.252 38.2193 20.252C38.2191 20.252 38.2189 20.252 38.2186 20.252C38.2184 20.252 38.2182 20.252 38.2179 20.252C38.2177 20.252 38.2175 20.252 38.2172 20.252C38.217 20.252 38.2168 20.252 38.2165 20.252C38.2163 20.252 38.2161 20.252 38.2158 20.252C38.2156 20.252 38.2153 20.252 38.2151 20.252C38.2149 20.252 38.2146 20.252 38.2144 20.252C38.2142 20.252 38.2139 20.252 38.2137 20.252C38.2135 20.252 38.2132 20.252 38.213 20.252C38.2128 20.252 38.2125 20.252 38.2123 20.252C38.2121 20.252 38.2118 20.252 38.2116 20.252C38.2114 20.252 38.2111 20.252 38.2109 20.252C38.2106 20.252 38.2104 20.252 38.2102 20.252C38.2099 20.252 38.2097 20.252 38.2095 20.252C38.2092 20.252 38.209 20.252 38.2088 20.252C38.2085 20.252 38.2083 20.252 38.2081 20.252C38.2078 20.252 38.2076 20.252 38.2074 20.252C38.2071 20.252 38.2069 20.252 38.2067 20.252C38.2064 20.252 38.2062 20.252 38.206 20.252C38.2057 20.252 38.2055 20.252 38.2053 20.252C38.205 20.252 38.2048 20.252 38.2045 20.252C38.2043 20.252 38.2041 20.252 38.2038 20.252C38.2036 20.252 38.2034 20.252 38.2031 20.252C38.2029 20.252 38.2027 20.252 38.2024 20.252C38.2022 20.252 38.202 20.252 38.2017 20.252C38.2015 20.252 38.2013 20.252 38.201 20.252C38.2008 20.252 38.2006 20.252 38.2003 20.252C38.2001 20.252 38.1999 20.252 38.1996 20.252C38.1994 20.252 38.1992 20.252 38.1989 20.252C38.1987 20.252 38.1985 20.252 38.1982 20.252C38.198 20.252 38.1978 20.252 38.1975 20.252C38.1973 20.252 38.197 20.252 38.1968 20.252C38.1966 20.252 38.1963 20.252 38.1961 20.252C38.1959 20.252 38.1956 20.252 38.1954 20.252C38.1952 20.252 38.1949 20.252 38.1947 20.252C38.1945 20.252 38.1942 20.252 38.194 20.252C38.1938 20.252 38.1935 20.252 38.1933 20.252C38.1931 20.252 38.1928 20.252 38.1926 20.252C38.1924 20.252 38.1921 20.252 38.1919 20.252C38.1917 20.252 38.1914 20.252 38.1912 20.252C38.191 20.252 38.1907 20.252 38.1905 20.252C38.1903 20.252 38.19 20.252 38.1898 20.252C38.1896 20.252 38.1893 20.252 38.1891 20.252C38.1889 20.252 38.1886 20.252 38.1884 20.252C38.1882 20.252 38.1879 20.252 38.1877 20.252C38.1875 20.252 38.1872 20.252 38.187 20.252C38.1868 20.252 38.1865 20.252 38.1863 20.252C38.1861 20.252 38.1858 20.252 38.1856 20.252C38.1854 20.252 38.1851 20.252 38.1849 20.252C38.1847 20.252 38.1844 20.252 38.1842 20.252C38.184 20.252 38.1837 20.252 38.1835 20.252C38.1833 20.252 38.183 20.252 38.1828 20.252C38.1826 20.252 38.1823 20.252 38.1821 20.252C38.1819 20.252 38.1816 20.252 38.1814 20.252C38.1812 20.252 38.1809 20.252 38.1807 20.252C38.1805 20.252 38.1802 20.252 38.18 20.252C38.1798 20.252 38.1795 20.252 38.1793 20.252C38.1791 20.252 38.1788 20.252 38.1786 20.252C38.1784 20.252 38.1781 20.252 38.1779 20.252C38.1777 20.252 38.1774 20.252 38.1772 20.252C38.177 20.252 38.1767 20.252 38.1765 20.252C38.1763 20.252 38.176 20.252 38.1758 20.252C38.1756 20.252 38.1753 20.252 38.1751 20.252C38.1749 20.252 38.1746 20.252 38.1744 20.252C38.1742 20.252 38.1739 20.252 38.1737 20.252C38.1735 20.252 38.1732 20.252 38.173 20.252C38.1728 20.252 38.1725 20.252 38.1723 20.252C38.1721 20.252 38.1718 20.252 38.1716 20.252C38.1714 20.252 38.1711 20.252 38.1709 20.252C38.1707 20.252 38.1704 20.252 38.1702 20.252C38.17 20.252 38.1697 20.252 38.1695 20.252C38.1693 20.252 38.169 20.252 38.1688 20.252C38.1686 20.252 38.1683 20.252 38.1681 20.252C38.1679 20.252 38.1676 20.252 38.1674 20.252C38.1672 20.252 38.1669 20.252 38.1667 20.252C38.1665 20.252 38.1662 20.252 38.166 20.252C38.1658 20.252 38.1655 20.252 38.1653 20.252C38.1651 20.252 38.1648 20.252 38.1646 20.252C38.1644 20.252 38.1641 20.252 38.1639 20.252C38.1637 20.252 38.1635 20.252 38.1632 20.252C38.163 20.252 38.1628 20.252 38.1625 20.252C38.1623 20.252 38.1621 20.252 38.1618 20.252C38.1616 20.252 38.1614 20.252 38.1611 20.252C38.1609 20.252 38.1607 20.252 38.1604 20.252C38.1602 20.252 38.16 20.252 38.1597 20.252C38.1595 20.252 38.1593 20.252 38.159 20.252C38.1588 20.252 38.1586 20.252 38.1583 20.252C38.1581 20.252 38.1579 20.252 38.1576 20.252C38.1574 20.252 38.1572 20.252 38.1569 20.252C38.1567 20.252 38.1565 20.252 38.1562 20.252C38.156 20.252 38.1558 20.252 38.1556 20.252C38.1553 20.252 38.1551 20.252 38.1549 20.252C38.1546 20.252 38.1544 20.252 38.1542 20.252C38.1539 20.252 38.1537 20.252 38.1535 20.252C38.1532 20.252 38.153 20.252 38.1528 20.252C38.1525 20.252 38.1523 20.252 38.1521 20.252C38.1518 20.252 38.1516 20.252 38.1514 20.252C38.1511 20.252 38.1509 20.252 38.1507 20.252C38.1505 20.252 38.1502 20.252 38.15 20.252C38.1498 20.252 38.1495 20.252 38.1493 20.252C38.1491 20.252 38.1488 20.252 38.1486 20.252C38.1484 20.252 38.1481 20.252 38.1479 20.252C38.1477 20.252 38.1474 20.252 38.1472 20.252C38.147 20.252 38.1467 20.252 38.1465 20.252C38.1463 20.252 38.146 20.252 38.1458 20.252C38.1456 20.252 38.1454 20.252 38.1451 20.252C38.1449 20.252 38.1447 20.252 38.1444 20.252C38.1442 20.252 38.144 20.252 38.1437 20.252C38.1435 20.252 38.1433 20.252 38.143 20.252C38.1428 20.252 38.1426 20.252 38.1423 20.252V26.252ZM38.711 26.2453C38.8522 26.2359 38.9891 26.2265 39.1217 26.217L38.6942 20.2322C38.5717 20.241 38.4442 20.2498 38.3119 20.2586L38.711 26.2453ZM35.908 23.2246V26.1367H41.908V23.2246H35.908ZM38.7969 23.1388L36.9512 23.2071L37.1733 29.203L39.019 29.1347L38.7969 23.1388ZM36.9584 23.2069C36.2127 23.2327 35.7413 23.1731 35.4756 23.1057C35.2138 23.0393 35.2916 23.0025 35.4519 23.1693L31.1258 27.3268C32.7417 29.0082 35.1624 29.2727 37.1662 29.2033L36.9584 23.2069ZM35.4319 23.1487C35.5065 23.2249 35.5611 23.3009 35.5987 23.3659C35.6355 23.4296 35.6513 23.4743 35.6557 23.4881C35.6598 23.5012 35.6536 23.4857 35.6465 23.4336C35.6395 23.3814 35.6326 23.2997 35.6326 23.1836H29.6326C29.6326 24.5203 29.9416 26.1182 31.1458 27.3474L35.4319 23.1487ZM35.6326 23.1836V14.0098H29.6326V23.1836H35.6326ZM32.6326 11.0098H30.5545V17.0098H32.6326V11.0098ZM46.3034 14.7617L44.0591 12.7709L44.0501 12.7811L44.0411 12.7914L46.3034 14.7617ZM45.3737 17.0586L42.3995 16.6658L41.9514 20.0586H45.3737V17.0586ZM51.4303 17.0586V20.0586H54.6219L54.4246 16.8731L51.4303 17.0586ZM50.487 14.7207L48.4013 16.8771L48.4192 16.8944L48.4375 16.9115L50.487 14.7207ZM54.2194 13.5996L51.6988 15.2265L51.707 15.2392L51.7153 15.2518L54.2194 13.5996ZM55.3541 16.6758L58.3224 16.2404L58.3216 16.2353L55.3541 16.6758ZM55.4772 19.6289V22.6289H58.4349L58.4769 19.6715L55.4772 19.6289ZM45.278 19.6289V16.6289H42.1662L42.28 19.7386L45.278 19.6289ZM46.6862 22.7734L48.3981 20.3099L48.386 20.3014L48.3738 20.2931L46.6862 22.7734ZM50.5827 22.6504L48.5758 20.4205L48.5702 20.4255L48.5646 20.4306L50.5827 22.6504ZM51.3073 21.625V18.625H49.4181L48.6018 20.3286L51.3073 21.625ZM55.2858 21.625L58.2667 21.963L58.6452 18.625H55.2858V21.625ZM53.9049 24.3184L51.675 22.3115L51.6641 22.3236L51.6533 22.3358L53.9049 24.3184ZM43.3092 12.7656L41.1382 10.6952L41.131 10.7028L43.3092 12.7656ZM48.4088 10.9141C46.8309 10.9141 45.2406 11.4391 44.0591 12.7709L48.5476 16.7526C48.5233 16.78 48.4887 16.8123 48.4448 16.8433C48.4009 16.8743 48.3591 16.8956 48.3261 16.9089C48.2594 16.9358 48.2692 16.9141 48.4088 16.9141V10.9141ZM44.0411 12.7914C43.061 13.9167 42.5814 15.2887 42.3995 16.6658L48.3478 17.4514C48.4212 16.8962 48.5614 16.7369 48.5656 16.7321L44.0411 12.7914ZM45.3737 20.0586H51.4303V14.0586H45.3737V20.0586ZM54.4246 16.8731C54.3296 15.3398 53.8265 13.7368 52.5364 12.5299L48.4375 16.9115C48.41 16.8858 48.3887 16.8596 48.3743 16.8383C48.3604 16.8176 48.3589 16.8102 48.3646 16.8242C48.3773 16.8558 48.4197 16.9803 48.4361 17.2441L54.4246 16.8731ZM52.5726 12.5643C51.4142 11.4439 49.9547 10.9141 48.4088 10.9141V16.9141C48.4539 16.9141 48.4774 16.9177 48.4834 16.9187C48.4888 16.9197 48.4812 16.9187 48.4649 16.9124C48.4571 16.9094 48.4487 16.9057 48.44 16.9013C48.4313 16.8968 48.4234 16.8922 48.4165 16.8877C48.402 16.8784 48.397 16.8729 48.4013 16.8771L52.5726 12.5643ZM48.4088 13.7012C49.2664 13.7012 49.9404 13.8599 50.4871 14.1157L53.0298 8.68116C51.5895 8.00724 50.0304 7.70117 48.4088 7.70117V13.7012ZM50.4871 14.1157C50.9253 14.3208 51.3295 14.6543 51.6988 15.2265L56.7399 11.9727C55.815 10.5397 54.5786 9.4058 53.0298 8.68116L50.4871 14.1157ZM51.7153 15.2518C52.0315 15.7311 52.2704 16.333 52.3867 17.1163L58.3216 16.2353C58.0915 14.6853 57.5739 13.2364 56.7234 11.9474L51.7153 15.2518ZM52.3859 17.1111C52.451 17.5553 52.495 18.3499 52.4775 19.5864L58.4769 19.6715C58.4958 18.3376 58.4578 17.1635 58.3224 16.2404L52.3859 17.1111ZM55.4772 16.6289H45.278V22.6289H55.4772V16.6289ZM42.28 19.7386C42.3547 21.7804 43.0406 23.9215 44.9985 25.2537L48.3738 20.2931C48.4254 20.3283 48.434 20.3658 48.409 20.31C48.3717 20.2267 48.2933 19.9921 48.276 19.5192L42.28 19.7386ZM44.9742 25.237C46.0894 26.012 47.357 26.334 48.6276 26.334V20.334C48.4968 20.334 48.4292 20.318 48.407 20.3116C48.3885 20.3062 48.3909 20.3048 48.3981 20.3099L44.9742 25.237ZM48.6276 26.334C50.0305 26.334 51.4483 25.9179 52.6007 24.8702L48.5646 20.4306C48.5877 20.4096 48.6163 20.388 48.6485 20.3689C48.6806 20.3499 48.7085 20.3379 48.7277 20.3312C48.767 20.3175 48.7449 20.334 48.6276 20.334V26.334ZM52.5896 24.8803C53.2315 24.3025 53.6848 23.6057 54.0127 22.9214L48.6018 20.3286C48.5586 20.4188 48.5286 20.4644 48.5189 20.4781C48.5096 20.4913 48.5258 20.4654 48.5758 20.4205L52.5896 24.8803ZM51.3073 24.625H55.2858V18.625H51.3073V24.625ZM52.3049 21.287C52.2972 21.3548 52.2316 21.6931 51.675 22.3115L56.1348 26.3253C57.2189 25.1207 58.0738 23.6635 58.2667 21.963L52.3049 21.287ZM51.6533 22.3358C51.0553 23.015 50.1596 23.4922 48.5455 23.4922V29.4922C51.5253 29.4922 54.2025 28.5201 56.1565 26.3009L51.6533 22.3358ZM48.5455 23.4922C47.357 23.4922 46.3693 23.1314 45.4613 22.3662L41.5947 26.9541C43.5851 28.6316 45.9424 29.4922 48.5455 29.4922V23.4922ZM45.4613 22.3662C44.9501 21.9354 44.3541 20.979 44.3541 18.6992H38.3541C38.3541 21.9246 39.2074 24.9422 41.5947 26.9541L45.4613 22.3662ZM44.3541 18.6992C44.3541 16.6056 44.8779 15.4721 45.4875 14.8285L41.131 10.7028C39.1337 12.8118 38.3541 15.634 38.3541 18.6992H44.3541ZM45.4803 14.836C46.1682 14.1146 47.0533 13.7012 48.4088 13.7012V7.70117C45.5899 7.70117 43.0752 8.66405 41.1382 10.6952L45.4803 14.836ZM62.5991 19.7793L65.5707 19.3674L65.212 16.7793H62.5991V19.7793ZM63.3511 21.8438L61.0313 23.746L61.036 23.7518L63.3511 21.8438ZM69.2847 22.7598L70.2832 25.5888L70.2923 25.5855L69.2847 22.7598ZM70.1734 18.877L71.7634 16.333L71.749 16.324L71.7345 16.3151L70.1734 18.877ZM67.4253 17.9336L66.7686 20.8608L66.7761 20.8625L66.7836 20.8642L67.4253 17.9336ZM65.2925 17.4551L64.6309 20.3812L64.6357 20.3823L65.2925 17.4551ZM60.9448 15.9102L62.6539 13.4446L62.6467 13.4396L62.6395 13.4346L60.9448 15.9102ZM72.0874 6.95508L70.2781 9.34806L70.2862 9.35421L70.2944 9.36032L72.0874 6.95508ZM74.4527 11.8496V14.8496H77.5565L77.4509 11.7475L74.4527 11.8496ZM70.4058 11.8496L67.4112 12.0297L67.5808 14.8496H70.4058V11.8496ZM68.8198 9.26562L70.2008 6.60234L70.191 6.59733L68.8198 9.26562ZM63.7749 9.41602L62.0947 6.93069L63.7749 9.41602ZM63.7612 12.8613L65.2621 10.2637L65.2418 10.252L65.2214 10.2406L63.7612 12.8613ZM66.3862 13.6953L67.0868 10.7782L67.0811 10.7769L66.3862 13.6953ZM69.8589 14.5293L69.1584 17.4464L69.1601 17.4468L69.8589 14.5293ZM73.3042 15.9922L71.4471 18.3483L71.4476 18.3487L73.3042 15.9922ZM72.9898 24.7012L74.9506 26.9716L74.9518 26.9707L72.9898 24.7012ZM60.8355 24.7285L58.9614 27.0711L58.9701 27.0781L60.8355 24.7285ZM58.5796 19.7793V16.7793H55.5796V19.7793H58.5796ZM59.6276 20.1912C59.7911 21.3711 60.1599 22.6834 61.0313 23.746L65.6709 19.9415C65.7434 20.03 65.7382 20.0594 65.7017 19.9591C65.6651 19.8588 65.6128 19.671 65.5707 19.3674L59.6276 20.1912ZM61.036 23.7518C62.5415 25.5784 64.8006 26.0879 66.8648 26.0879V20.0879C66.2692 20.0879 65.92 20.0114 65.7435 19.9489C65.5899 19.8945 65.6106 19.8683 65.6661 19.9357L61.036 23.7518ZM66.8648 26.0879C68.0425 26.0879 69.2228 25.963 70.2831 25.5887L68.2862 19.9308C68.107 19.994 67.6741 20.0879 66.8648 20.0879V26.0879ZM70.2923 25.5855C71.2795 25.2335 72.269 24.6397 73.0024 23.6676C73.752 22.6738 74.0484 21.5304 74.0484 20.4219H68.0484C68.0484 20.4485 68.0451 20.4105 68.0698 20.33C68.0959 20.2447 68.1429 20.1464 68.2125 20.0541C68.358 19.8613 68.4657 19.8668 68.2771 19.934L70.2923 25.5855ZM74.0484 20.4219C74.0484 18.6803 73.1878 17.2232 71.7634 16.333L68.5834 21.4209C68.5206 21.3817 68.3568 21.258 68.2192 21.0151C68.0792 20.7678 68.0484 20.5418 68.0484 20.4219H74.0484ZM71.7345 16.3151C70.7182 15.6958 69.4091 15.2969 68.067 15.003L66.7836 20.8642C67.939 21.1172 68.4619 21.3471 68.6122 21.4388L71.7345 16.3151ZM68.0821 15.0064L65.9492 14.5278L64.6357 20.3823L66.7686 20.8608L68.0821 15.0064ZM65.9541 14.5289C63.8899 14.0622 62.9417 13.644 62.6539 13.4446L59.2358 18.3757C60.5522 19.2882 62.5024 19.9 64.6309 20.3812L65.9541 14.5289ZM62.6395 13.4346C62.2702 13.1818 61.9077 12.7649 61.9077 11.5488H55.9077C55.9077 14.2885 56.9033 16.7791 59.2502 18.3857L62.6395 13.4346ZM61.9077 11.5488C61.9077 10.5726 62.2198 9.88439 62.8953 9.2699L58.8577 4.83166C56.9082 6.60519 55.9077 8.91573 55.9077 11.5488H61.9077ZM62.8953 9.2699C63.4569 8.75899 64.5425 8.25977 66.6597 8.25977V2.25977C63.6909 2.25977 60.9211 2.95456 58.8577 4.83166L62.8953 9.2699ZM66.6597 8.25977C68.2214 8.25977 69.3726 8.66339 70.2781 9.34806L73.8967 4.5621C71.8127 2.98635 69.3453 2.25977 66.6597 2.25977V8.25977ZM70.2944 9.36032C70.9576 9.85468 71.4075 10.5742 71.4544 11.9517L77.4509 11.7475C77.352 8.84115 76.2251 6.29766 73.8804 4.54984L70.2944 9.36032ZM74.4527 8.84961H70.4058V14.8496H74.4527V8.84961ZM73.4004 11.6695C73.2713 9.5243 72.2255 7.65218 70.2008 6.60236L67.4389 11.9289C67.4751 11.9476 67.4757 11.9531 67.4577 11.9368C67.4492 11.9291 67.4386 11.9184 67.4273 11.9048C67.416 11.8911 67.406 11.8771 67.3978 11.8637C67.3802 11.8351 67.379 11.8233 67.3844 11.8421C67.3905 11.863 67.4047 11.9216 67.4112 12.0297L73.4004 11.6695ZM70.191 6.59733C68.9964 5.98343 67.6773 5.75977 66.3726 5.75977V11.7598C67.0184 11.7598 67.3307 11.8733 67.4486 11.9339L70.191 6.59733ZM66.3726 5.75977C64.9142 5.75977 63.3964 6.05064 62.0947 6.93069L65.4551 11.9013C65.4554 11.9012 65.4583 11.8992 65.4644 11.8959C65.4706 11.8925 65.4806 11.8874 65.495 11.8812C65.524 11.8686 65.5721 11.8507 65.6445 11.8324C65.7924 11.7951 66.0271 11.7598 66.3726 11.7598V5.75977ZM62.0947 6.93069C60.6188 7.92845 59.8042 9.47217 59.8042 11.248H65.8042C65.8042 11.2793 65.7945 11.4242 65.6978 11.6067C65.6009 11.7896 65.4851 11.8811 65.4551 11.9013L62.0947 6.93069ZM59.8042 11.248C59.8042 12.0637 59.9895 12.9234 60.4633 13.722C60.9358 14.5185 61.5976 15.0901 62.3011 15.482L65.2214 10.2406C65.2868 10.2771 65.4702 10.4021 65.6236 10.6608C65.7784 10.9217 65.8042 11.1524 65.8042 11.248H59.8042ZM62.2604 15.4589C63.1106 15.9501 64.4168 16.3102 65.6914 16.6137L67.0811 10.7769C66.4514 10.627 65.9752 10.497 65.6335 10.3884C65.2483 10.266 65.1783 10.2153 65.2621 10.2637L62.2604 15.4589ZM65.6857 16.6124L69.1584 17.4464L70.5595 11.6122L67.0868 10.7783L65.6857 16.6124ZM69.1601 17.4468C70.4807 17.7631 71.1552 18.1182 71.4471 18.3483L75.1614 13.6361C73.9038 12.6449 72.2814 12.0247 70.5577 11.6118L69.1601 17.4468ZM71.4476 18.3487C71.7998 18.6261 72.1089 19.0533 72.1089 20.1074H78.1089C78.1089 17.5704 77.2149 15.2541 75.1608 13.6357L71.4476 18.3487ZM72.1089 20.1074C72.1089 21.063 71.7922 21.7708 71.0278 22.4317L74.9518 26.9707C77.0128 25.1888 78.1089 22.8342 78.1089 20.1074H72.1089ZM71.0289 22.4307C70.3485 23.0183 69.1562 23.5195 67.0288 23.5195V29.5195C70.0421 29.5195 72.8237 28.8085 74.9506 26.9716L71.0289 22.4307ZM67.0288 23.5195C64.8348 23.5195 63.509 23.0206 62.7009 22.379L58.9701 27.0781C61.1697 28.8245 63.9728 29.5195 67.0288 29.5195V23.5195ZM62.7096 22.3859C61.9864 21.8073 61.5796 21.0566 61.5796 19.7793H55.5796C55.5796 22.6947 56.6768 25.2434 58.9614 27.0711L62.7096 22.3859ZM58.5796 22.7793H62.5991V16.7793H58.5796V22.7793ZM83.0375 9.32031V12.3203H86.0375V9.32031H83.0375ZM79.0863 9.32031H76.0863V12.3203H79.0863V9.32031ZM79.0863 5.72461V2.72461H76.0863V5.72461H79.0863ZM83.0375 5.72461H86.0375V2.72461H83.0375V5.72461ZM79.0863 11.0977V8.09766H76.0863V11.0977H79.0863ZM83.0375 11.0977H86.0375V8.09766H83.0375V11.0977ZM83.0375 26V29H86.0375V26H83.0375ZM79.0863 26H76.0863V29H79.0863V26ZM83.0375 6.32031H79.0863V12.3203H83.0375V6.32031ZM82.0863 9.32031V5.72461H76.0863V9.32031H82.0863ZM79.0863 8.72461H83.0375V2.72461H79.0863V8.72461ZM80.0375 5.72461V9.32031H86.0375V5.72461H80.0375ZM79.0863 14.0977H83.0375V8.09766H79.0863V14.0977ZM80.0375 11.0977V26H86.0375V11.0977H80.0375ZM83.0375 23H79.0863V29H83.0375V23ZM82.0863 26V11.0977H76.0863V26H82.0863ZM87.097 14.2695H84.097V17.2695H87.097V14.2695ZM87.097 11.0977V8.09766H84.097V11.0977H87.097ZM99.1829 11.0977H102.183V8.09766H99.1829V11.0977ZM99.1829 14.3379L101.42 16.3366L102.183 15.4828V14.3379H99.1829ZM91.6223 22.8008L89.3851 20.8021L84.9194 25.8008H91.6223V22.8008ZM99.4427 22.8008H102.443V19.8008H99.4427V22.8008ZM99.4427 26V29H102.443V26H99.4427ZM86.5774 26H83.5774V29H86.5774V26ZM86.5774 22.9648L84.3241 20.9843L83.5774 21.8338V22.9648H86.5774ZM94.22 14.2695L96.4733 16.2501L100.851 11.2695H94.22V14.2695ZM90.097 14.2695V11.0977H84.097V14.2695H90.097ZM87.097 14.0977H99.1829V8.09766H87.097V14.0977ZM96.1829 11.0977V14.3379H102.183V11.0977H96.1829ZM96.9457 12.3392L89.3851 20.8021L93.8596 24.7995L101.42 16.3366L96.9457 12.3392ZM91.6223 25.8008H99.4427V19.8008H91.6223V25.8008ZM96.4427 22.8008V26H102.443V22.8008H96.4427ZM99.4427 23H86.5774V29H99.4427V23ZM89.5774 26V22.9648H83.5774V26H89.5774ZM88.8308 24.9454L96.4733 16.2501L91.9667 12.289L84.3241 20.9843L88.8308 24.9454ZM94.22 11.2695H87.097V17.2695H94.22V11.2695ZM106.838 14.7617L104.594 12.7709L104.585 12.7811L104.576 12.7914L106.838 14.7617ZM105.908 17.0586L102.934 16.6658L102.486 20.0586H105.908V17.0586ZM111.965 17.0586V20.0586H115.157L114.959 16.8731L111.965 17.0586ZM111.022 14.7207L108.936 16.8771L108.954 16.8944L108.972 16.9115L111.022 14.7207ZM114.754 13.5996L112.234 15.2265L112.242 15.2392L112.25 15.2518L114.754 13.5996ZM115.889 16.6758L118.857 16.2404L118.856 16.2353L115.889 16.6758ZM116.012 19.6289V22.6289H118.97L119.012 19.6715L116.012 19.6289ZM105.813 19.6289V16.6289H102.701L102.815 19.7386L105.813 19.6289ZM107.221 22.7734L108.933 20.3099L108.921 20.3014L108.908 20.2931L107.221 22.7734ZM111.117 22.6504L109.11 20.4205L109.105 20.4255L109.099 20.4306L111.117 22.6504ZM111.842 21.625V18.625H109.953L109.137 20.3286L111.842 21.625ZM115.82 21.625L118.801 21.963L119.18 18.625H115.82V21.625ZM114.44 24.3184L112.21 22.3115L112.199 22.3236L112.188 22.3358L114.44 24.3184ZM103.844 12.7656L101.673 10.6952L101.666 10.7028L103.844 12.7656ZM108.944 10.9141C107.366 10.9141 105.775 11.4391 104.594 12.7709L109.082 16.7526C109.058 16.78 109.023 16.8123 108.979 16.8433C108.936 16.8743 108.894 16.8956 108.861 16.9089C108.794 16.9358 108.804 16.9141 108.944 16.9141V10.9141ZM104.576 12.7914C103.596 13.9167 103.116 15.2887 102.934 16.6658L108.883 17.4514C108.956 16.8962 109.096 16.7369 109.1 16.7321L104.576 12.7914ZM105.908 20.0586H111.965V14.0586H105.908V20.0586ZM114.959 16.8731C114.864 15.3398 114.361 13.7368 113.071 12.5299L108.972 16.9115C108.945 16.8858 108.923 16.8596 108.909 16.8383C108.895 16.8176 108.894 16.8102 108.899 16.8242C108.912 16.8558 108.954 16.9803 108.971 17.2441L114.959 16.8731ZM113.107 12.5643C111.949 11.4439 110.489 10.9141 108.944 10.9141V16.9141C108.989 16.9141 109.012 16.9177 109.018 16.9187C109.023 16.9197 109.016 16.9187 109 16.9124C108.992 16.9094 108.983 16.9057 108.975 16.9013C108.966 16.8968 108.958 16.8922 108.951 16.8877C108.937 16.8784 108.932 16.8729 108.936 16.8771L113.107 12.5643ZM108.944 13.7012C109.801 13.7012 110.475 13.8599 111.022 14.1157L113.565 8.68116C112.124 8.00724 110.565 7.70117 108.944 7.70117V13.7012ZM111.022 14.1157C111.46 14.3208 111.864 14.6543 112.234 15.2265L117.275 11.9727C116.35 10.5397 115.113 9.4058 113.565 8.68116L111.022 14.1157ZM112.25 15.2518C112.566 15.7311 112.805 16.333 112.921 17.1163L118.856 16.2353C118.626 14.6853 118.109 13.2364 117.258 11.9474L112.25 15.2518ZM112.921 17.1111C112.986 17.5553 113.03 18.3499 113.012 19.5864L119.012 19.6715C119.03 18.3376 118.992 17.1635 118.857 16.2404L112.921 17.1111ZM116.012 16.6289H105.813V22.6289H116.012V16.6289ZM102.815 19.7386C102.889 21.7804 103.575 23.9215 105.533 25.2537L108.908 20.2931C108.96 20.3283 108.969 20.3658 108.944 20.31C108.906 20.2267 108.828 19.9921 108.811 19.5192L102.815 19.7386ZM105.509 25.237C106.624 26.012 107.892 26.334 109.162 26.334V20.334C109.031 20.334 108.964 20.318 108.942 20.3116C108.923 20.3062 108.926 20.3048 108.933 20.3099L105.509 25.237ZM109.162 26.334C110.565 26.334 111.983 25.9179 113.135 24.8702L109.099 20.4306C109.122 20.4096 109.151 20.388 109.183 20.3689C109.215 20.3499 109.243 20.3379 109.262 20.3312C109.302 20.3175 109.28 20.334 109.162 20.334V26.334ZM113.124 24.8803C113.766 24.3025 114.219 23.6057 114.547 22.9214L109.137 20.3286C109.093 20.4188 109.063 20.4644 109.054 20.4781C109.044 20.4913 109.061 20.4654 109.11 20.4205L113.124 24.8803ZM111.842 24.625H115.82V18.625H111.842V24.625ZM112.84 21.287C112.832 21.3548 112.766 21.6931 112.21 22.3115L116.669 26.3253C117.754 25.1207 118.609 23.6635 118.801 21.963L112.84 21.287ZM112.188 22.3358C111.59 23.015 110.694 23.4922 109.08 23.4922V29.4922C112.06 29.4922 114.737 28.5201 116.691 26.3009L112.188 22.3358ZM109.08 23.4922C107.892 23.4922 106.904 23.1314 105.996 22.3662L102.129 26.9541C104.12 28.6316 106.477 29.4922 109.08 29.4922V23.4922ZM105.996 22.3662C105.485 21.9354 104.889 20.979 104.889 18.6992H98.8888C98.8888 21.9246 99.742 24.9422 102.129 26.9541L105.996 22.3662ZM104.889 18.6992C104.889 16.6056 105.413 15.4721 106.022 14.8285L101.666 10.7028C99.6684 12.8118 98.8888 15.634 98.8888 18.6992H104.889ZM106.015 14.836C106.703 14.1146 107.588 13.7012 108.944 13.7012V7.70117C106.125 7.70117 103.61 8.66405 101.673 10.6952L106.015 14.836ZM127.673 11.3438L126.184 13.9485L126.197 13.9558L126.21 13.963L127.673 11.3438ZM129.382 12.9844L126.836 14.5714L132.382 23.4679V12.9844H129.382ZM129.382 5.875V2.875H126.382V5.875H129.382ZM133.333 5.875H136.333V2.875H133.333V5.875ZM133.333 26V29H136.333V26H133.333ZM129.546 26H126.546V29H129.546V26ZM129.546 23.9355H132.546V13.5297L127.006 22.3385L129.546 23.9355ZM120.591 24.3594L118.292 26.2872L118.299 26.2952L118.306 26.3032L120.591 24.3594ZM120.564 12.9297L118.228 11.0467L118.221 11.0556L120.564 12.9297ZM128.11 14.8574L130.055 12.5733L130.047 12.566L130.038 12.5588L128.11 14.8574ZM123.626 15.4453L121.077 13.8625L121.073 13.87L123.626 15.4453ZM123.64 21.9531L121.122 23.5852L121.133 23.6013L121.144 23.6172L123.64 21.9531ZM125.267 13.7422C125.709 13.7422 125.987 13.8356 126.184 13.9485L129.161 8.73902C127.955 8.04981 126.629 7.74219 125.267 7.74219V13.7422ZM126.21 13.963C126.456 14.1005 126.659 14.2867 126.836 14.5714L131.928 11.3974C131.23 10.2784 130.293 9.37081 129.136 8.72449L126.21 13.963ZM132.382 12.9844V5.875H126.382V12.9844H132.382ZM129.382 8.875H133.333V2.875H129.382V8.875ZM130.333 5.875V26H136.333V5.875H130.333ZM133.333 23H129.546V29H133.333V23ZM132.546 26V23.9355H126.546V26H132.546ZM127.006 22.3385C126.643 22.9157 126.344 23.1532 126.172 23.2503L129.12 28.4762C130.369 27.7713 131.337 26.7236 132.086 25.5326L127.006 22.3385ZM126.172 23.2503C126.024 23.3334 125.683 23.4648 124.993 23.4648V29.4648C126.418 29.4648 127.845 29.1952 129.12 28.4762L126.172 23.2503ZM124.993 23.4648C124.189 23.4648 123.538 23.1939 122.876 22.4156L118.306 26.3032C120.032 28.3322 122.316 29.4648 124.993 29.4648V23.4648ZM122.889 22.4315C122.243 21.6602 121.814 20.5768 121.814 18.9316H115.814C115.814 21.698 116.569 24.233 118.292 26.2872L122.889 22.4315ZM121.814 18.9316C121.814 16.8251 122.296 15.5662 122.906 14.8038L118.221 11.0556C116.498 13.2098 115.814 15.9522 115.814 18.9316H121.814ZM122.899 14.8127C123.476 14.0975 124.166 13.7422 125.267 13.7422V7.74219C122.448 7.74219 120.003 8.84524 118.228 11.0467L122.899 14.8127ZM126.114 26.1836C128.08 26.1836 129.889 25.3864 131.088 23.6735L126.172 20.2327C126.159 20.2517 126.16 20.2462 126.179 20.2292C126.189 20.2212 126.2 20.2123 126.213 20.2034C126.227 20.1945 126.24 20.187 126.252 20.1811C126.278 20.1685 126.288 20.1681 126.272 20.1715C126.254 20.1752 126.204 20.1836 126.114 20.1836V26.1836ZM131.088 23.6735C132.108 22.2164 132.491 20.502 132.491 18.7676H126.491C126.491 19.6399 126.301 20.0492 126.172 20.2327L131.088 23.6735ZM132.491 18.7676C132.491 16.5171 131.926 14.1662 130.055 12.5733L126.165 17.1416C126.168 17.1438 126.238 17.1963 126.317 17.4218C126.404 17.6687 126.491 18.0942 126.491 18.7676H132.491ZM130.038 12.5588C128.925 11.6252 127.584 11.1465 126.142 11.1465V17.1465C126.169 17.1465 126.183 17.1486 126.186 17.1491C126.188 17.1494 126.183 17.1488 126.175 17.1459C126.167 17.143 126.162 17.14 126.16 17.1391C126.159 17.1384 126.166 17.1425 126.183 17.156L130.038 12.5588ZM126.142 11.1465C124.11 11.1465 122.235 11.9986 121.078 13.8626L126.175 17.0281C126.183 17.0147 126.175 17.0304 126.145 17.0589C126.113 17.0884 126.075 17.1162 126.035 17.1369C125.996 17.157 125.975 17.1605 125.985 17.1583C125.997 17.1556 126.046 17.1465 126.142 17.1465V11.1465ZM121.073 13.87C120.183 15.3116 119.833 16.9594 119.833 18.6445H125.833C125.833 17.7776 126.011 17.2925 126.179 17.0206L121.073 13.87ZM119.833 18.6445C119.833 20.3814 120.169 22.1141 121.122 23.5852L126.157 20.3211C126.035 20.1333 125.833 19.6603 125.833 18.6445H119.833ZM121.144 23.6172C122.32 25.3821 124.148 26.1836 126.114 26.1836V20.1836C126.024 20.1836 125.977 20.1752 125.964 20.1724C125.952 20.1699 125.97 20.1725 126.004 20.1897C126.04 20.2075 126.076 20.2317 126.105 20.2583C126.134 20.284 126.143 20.2991 126.136 20.289L121.144 23.6172Z" fill="#00B14F" mask="url(#path-1-outside-1_37_5)"/>
<path d="M146 23.27H144.85V28H143.94V23.27H143.23V22.52H143.94V22.13C143.94 21.5167 144.097 21.07 144.41 20.79C144.73 20.5033 145.24 20.36 145.94 20.36V21.12C145.54 21.12 145.257 21.2 145.09 21.36C144.93 21.5133 144.85 21.77 144.85 22.13V22.52H146V23.27ZM149.451 28.09C148.938 28.09 148.471 27.9733 148.051 27.74C147.638 27.5067 147.311 27.1767 147.071 26.75C146.838 26.3167 146.721 25.8167 146.721 25.25C146.721 24.69 146.841 24.1967 147.081 23.77C147.328 23.3367 147.661 23.0067 148.081 22.78C148.501 22.5467 148.971 22.43 149.491 22.43C150.011 22.43 150.481 22.5467 150.901 22.78C151.321 23.0067 151.651 23.3333 151.891 23.76C152.138 24.1867 152.261 24.6833 152.261 25.25C152.261 25.8167 152.134 26.3167 151.881 26.75C151.634 27.1767 151.298 27.5067 150.871 27.74C150.444 27.9733 149.971 28.09 149.451 28.09ZM149.451 27.29C149.778 27.29 150.084 27.2133 150.371 27.06C150.658 26.9067 150.888 26.6767 151.061 26.37C151.241 26.0633 151.331 25.69 151.331 25.25C151.331 24.81 151.244 24.4367 151.071 24.13C150.898 23.8233 150.671 23.5967 150.391 23.45C150.111 23.2967 149.808 23.22 149.481 23.22C149.148 23.22 148.841 23.2967 148.561 23.45C148.288 23.5967 148.068 23.8233 147.901 24.13C147.734 24.4367 147.651 24.81 147.651 25.25C147.651 25.6967 147.731 26.0733 147.891 26.38C148.058 26.6867 148.278 26.9167 148.551 27.07C148.824 27.2167 149.124 27.29 149.451 27.29ZM154.368 23.41C154.528 23.0967 154.754 22.8533 155.048 22.68C155.348 22.5067 155.711 22.42 156.138 22.42V23.36H155.898C154.878 23.36 154.368 23.9133 154.368 25.02V28H153.458V22.52H154.368V23.41Z" fill="black"/>
<g clip-path="url(#clip0_37_5)">
<path d="M159.926 24.7441C159.926 26.3679 161.152 27.6133 162.736 27.6133C164.26 27.6133 165.027 26.627 165.027 25.5411V25.1524H162.806V25.7501H164.42C164.43 26.3379 163.892 27.0253 162.736 27.0253C161.461 27.0253 160.574 26.0789 160.574 24.7438C160.574 23.4587 161.53 22.4922 162.846 22.4922C163.702 22.4922 164.38 22.7016 165.007 23.1401L165.047 23.1102V22.5523C164.579 22.2235 163.782 21.9044 162.826 21.9044C161.202 21.9048 159.926 23.16 159.926 24.7441ZM159 24.7441C159 26.896 160.594 28.5 162.736 28.5C164.689 28.5 165.884 27.2749 165.884 25.2921V24.2762H162.806V24.8534H165.327V25.3914C165.327 26.9456 164.361 27.9123 162.736 27.9123C160.953 27.9123 159.628 26.5475 159.628 24.7442C159.628 22.9908 161.023 21.6059 162.826 21.6059C163.683 21.6059 164.46 21.8152 165.048 22.2236V21.6358C164.48 21.2274 163.733 21.0182 162.826 21.0182C160.664 21.0181 159 22.6623 159 24.7441ZM167.149 25.2522V28.3306H167.737V25.2622C167.737 24.5747 168.186 24.0865 168.853 24.0865C169.052 24.0865 169.232 24.1364 169.421 24.2161C169.501 24.0268 169.58 23.8674 169.68 23.7179C169.471 23.5785 169.162 23.4888 168.863 23.4888C167.857 23.4888 167.149 24.2161 167.149 25.2522ZM166.283 28.3306H166.871V25.2522C166.871 24.0367 167.687 23.2099 168.873 23.2099C169.272 23.2099 169.68 23.3394 169.859 23.449C169.969 23.3194 170.089 23.1799 170.248 23.0505C169.879 22.7913 169.381 22.6419 168.843 22.6419C167.279 22.6419 166.283 23.698 166.283 25.2622L166.283 28.3306ZM175.498 24.8836V25.7503C175.847 25.2821 176.146 24.8735 176.425 24.5349C177.131 23.6681 177.75 23.19 178.706 23.19C180.001 23.19 180.948 24.1663 180.948 25.5411C180.948 26.886 180.021 27.9122 178.746 27.9122C177.709 27.9122 176.813 27.2054 176.604 26.2385L176.186 26.8064C176.514 27.7528 177.481 28.5 178.736 28.5C180.35 28.5 181.535 27.2049 181.535 25.5411C181.536 23.8574 180.34 22.5916 178.706 22.5916C177.012 22.5916 176.235 23.8574 175.498 24.8836ZM177.321 25.3219H177.301L176.843 25.9495C176.923 26.6669 177.65 27.6233 178.746 27.6233C179.862 27.6233 180.669 26.7163 180.669 25.5311C180.669 24.3459 179.842 23.4689 178.706 23.4689C177.6 23.4689 176.963 24.2758 176.514 24.8735C176.295 25.1625 175.916 25.6308 175.498 26.2186V27.175C175.887 26.5972 176.415 25.9197 176.803 25.4515C177.461 24.6643 177.859 24.0666 178.696 24.0666C179.513 24.0666 180.071 24.6943 180.071 25.5311C180.071 26.3979 179.543 27.0355 178.746 27.0355C177.91 27.0355 177.321 26.2684 177.321 25.4115V25.3219ZM176.733 20.5V22.9804C176.913 22.8409 177.112 22.6715 177.321 22.5916V20.5H176.733ZM175.857 23.8874C176.036 23.6583 176.235 23.4092 176.445 23.2V20.5H175.857V23.8874ZM173.466 26.7264L173.456 26.7165C173.207 26.9157 172.798 27.0353 172.409 27.0353C171.612 27.0353 171.015 26.4374 171.015 25.551C171.015 24.7043 171.603 24.0566 172.39 24.0566C173.236 24.0566 173.755 24.6743 173.755 25.5013V28.3306H174.342V25.4714C174.342 24.3156 173.535 23.4688 172.4 23.4688C171.274 23.4688 170.407 24.3155 170.407 25.5509C170.407 26.776 171.264 27.653 172.4 27.6232C172.828 27.6132 173.266 27.4538 173.466 27.3143L173.466 26.7264ZM169.521 25.5411C169.521 27.2746 170.746 28.5 172.4 28.5C172.768 28.5 173.197 28.3904 173.466 28.1812V27.5934C173.286 27.7429 172.848 27.9122 172.4 27.9122C171.045 27.9122 170.128 26.9558 170.128 25.5411C170.128 24.1962 171.105 23.19 172.4 23.19C173.685 23.19 174.622 24.1364 174.622 25.4614V28.3306H175.219V25.4515C175.219 23.7977 174.054 22.5822 172.4 22.5822C170.776 22.5822 169.521 23.8674 169.521 25.5411Z" fill="#00B14F"/>
</g>
<defs>
<clipPath id="clip0_37_5">
<rect width="22.5356" height="8" fill="white" transform="translate(159 20.5)"/>
</clipPath>
</defs>
</svg>
