<?xml version="1.0" encoding="UTF-8"?>
<!DOCTYPE svg PUBLIC "-//W3C//DTD SVG 1.1//EN" "http://www.w3.org/Graphics/SVG/1.1/DTD/svg11.dtd">
<svg xmlns="http://www.w3.org/2000/svg" version="1.1" width="2000px" height="800px" style="shape-rendering:geometricPrecision; text-rendering:geometricPrecision; image-rendering:optimizeQuality; fill-rule:evenodd; clip-rule:evenodd" xmlns:xlink="http://www.w3.org/1999/xlink">
<g><path style="opacity:0.983" fill="#fefffe" d="M 1474.5,60.5 C 1491.5,60.5 1508.5,60.5 1525.5,60.5C 1525.67,137.167 1525.5,213.834 1525,290.5C 1507.59,309.243 1490.92,328.577 1475,348.5C 1474.5,252.501 1474.33,156.501 1474.5,60.5 Z"/></g>
<g><path style="opacity:0.976" fill="#fefffe" d="M 1548.5,60.5 C 1565.5,60.5 1582.5,60.5 1599.5,60.5C 1599.5,120.167 1599.5,179.833 1599.5,239.5C 1593.14,241.513 1587.14,244.346 1581.5,248C 1570.66,255.589 1559.99,263.422 1549.5,271.5C 1548.5,201.17 1548.17,130.836 1548.5,60.5 Z"/></g>
<g><path style="opacity:0.982" fill="#fefffe" d="M 343.5,104.5 C 389.988,101.832 435.655,106.666 480.5,119C 508.26,127.131 533.76,139.631 557,156.5C 557.667,173.5 557.667,190.5 557,207.5C 508.582,176.14 455.416,158.973 397.5,156C 305.907,148.751 228.407,177.918 165,243.5C 102.414,318.395 83.4137,403.395 108,498.5C 134.168,587.334 191.002,646.834 278.5,677C 338.602,694.697 398.268,693.363 457.5,673C 523.375,645.765 562.875,596.931 576,526.5C 577.99,515.243 579.324,503.91 580,492.5C 580.5,471.836 580.667,451.169 580.5,430.5C 509.167,430.5 437.833,430.5 366.5,430.5C 366.5,413.833 366.5,397.167 366.5,380.5C 453.833,380.5 541.167,380.5 628.5,380.5C 628.923,422.519 628.423,464.519 627,506.5C 622.121,564.189 601.454,615.189 565,659.5C 526.345,700.249 479.178,725.416 423.5,735C 336.384,750.109 255.384,734.442 180.5,688C 100.28,631.453 55.1134,553.953 45,455.5C 35.5501,334.949 78.3834,238.116 173.5,165C 224.753,129.638 281.419,109.471 343.5,104.5 Z"/></g>
<g><path style="opacity:0.984" fill="#fefffe" d="M 350.5,179.5 C 417.067,176.643 479.734,190.81 538.5,222C 544.669,225.584 550.669,229.417 556.5,233.5C 557.666,250.157 557.833,266.823 557,283.5C 556,284.167 555,284.833 554,285.5C 486.308,239.622 411.808,222.455 330.5,234C 255.845,249.988 207.345,294.488 185,367.5C 170.827,425.621 178.494,480.621 208,532.5C 244.299,586.493 295.299,613.826 361,614.5C 392.319,614.628 421.819,607.461 449.5,593C 473.991,578.838 490.824,558.338 500,531.5C 502.254,523.312 503.42,514.979 503.5,506.5C 457.833,506.5 412.167,506.5 366.5,506.5C 366.5,489.5 366.5,472.5 366.5,455.5C 429.833,455.5 493.167,455.5 556.5,455.5C 557.415,479.999 555.915,504.332 552,528.5C 535.927,592.574 496.427,634.741 433.5,655C 356.576,676.158 285.242,664.491 219.5,620C 155.323,569.806 122.989,503.639 122.5,421.5C 124.686,328.581 165.352,258.415 244.5,211C 277.745,193.028 313.079,182.528 350.5,179.5 Z"/></g>
<g><path style="opacity:0.981" fill="#fefffe" d="M 1173.5,236.5 C 1245.67,234.707 1307.17,259.041 1358,309.5C 1394.46,350.447 1415.13,398.447 1420,453.5C 1421.46,544.152 1421.96,634.818 1421.5,725.5C 1404.17,725.5 1386.83,725.5 1369.5,725.5C 1369.67,639.166 1369.5,552.833 1369,466.5C 1364.69,403.012 1336.53,353.512 1284.5,318C 1233.75,288.626 1180.08,281.959 1123.5,298C 1058.6,319.899 1016.44,363.733 997,429.5C 982.123,488.279 988.457,544.612 1016,598.5C 1046.13,648.572 1090.3,678.072 1148.5,687C 1182.52,692.365 1215.52,688.698 1247.5,676C 1255.99,672.26 1263.99,667.76 1271.5,662.5C 1272.67,679.49 1272.83,696.49 1272,713.5C 1247.7,729.71 1220.87,738.543 1191.5,740C 1102.91,742.949 1032.41,709.116 980,638.5C 945.264,583.842 931.264,524.175 938,459.5C 947.775,376.382 987.942,312.882 1058.5,269C 1094.32,248.963 1132.66,238.13 1173.5,236.5 Z"/></g>
<g><path style="opacity:0.98" fill="#fefffe" d="M 1704.5,237.5 C 1791.07,235.042 1860.24,268.042 1912,336.5C 1948.26,391.787 1962.93,452.454 1956,518.5C 1947.45,598.826 1909.95,661.326 1843.5,706C 1785.2,739.706 1723.2,748.706 1657.5,733C 1584.73,714.219 1533.56,670.385 1504,601.5C 1502.85,599.246 1502.52,596.913 1503,594.5C 1514.67,578.833 1526.33,563.167 1538,547.5C 1559.59,622.424 1608.43,668.591 1684.5,686C 1757.78,697.804 1817.95,675.304 1865,618.5C 1901,566.875 1913.66,509.875 1903,447.5C 1890.9,381.431 1854.73,333.931 1794.5,305C 1712.26,274.849 1638.93,289.182 1574.5,348C 1549.48,372.681 1526.31,398.848 1505,426.5C 1484.99,453.332 1464.83,479.999 1444.5,506.5C 1443.33,481.84 1443.17,457.173 1444,432.5C 1468.08,396.748 1494.08,362.415 1522,329.5C 1548.68,299.137 1580.18,275.303 1616.5,258C 1644.78,246.094 1674.11,239.261 1704.5,237.5 Z"/></g>
<g><path style="opacity:0.982" fill="#fefffe" d="M 875.5,241.5 C 910.768,241.32 944.434,248.486 976.5,263C 984.43,267.27 992.097,271.936 999.5,277C 987.289,287.71 975.956,299.21 965.5,311.5C 922.226,290.266 877.226,285.766 830.5,298C 766.236,318.443 727.902,361.943 715.5,428.5C 714.338,435.795 713.505,443.129 713,450.5C 712.5,542.166 712.333,633.833 712.5,725.5C 695.5,725.5 678.5,725.5 661.5,725.5C 661.333,633.499 661.5,541.499 662,449.5C 663.871,398.201 680.538,352.534 712,312.5C 747.629,272.933 792.129,250.099 845.5,244C 855.65,243.117 865.65,242.284 875.5,241.5 Z"/></g>
<g><path style="opacity:0.982" fill="#fefffe" d="M 1163.5,312.5 C 1217.9,307.906 1264.4,324.573 1303,362.5C 1328.2,391.385 1342.53,425.052 1346,463.5C 1346.5,550.833 1346.67,638.166 1346.5,725.5C 1329.5,725.5 1312.5,725.5 1295.5,725.5C 1295.98,637.143 1295.48,548.81 1294,460.5C 1284.33,405.164 1251.83,372.998 1196.5,364C 1140.79,359.765 1100.62,382.598 1076,432.5C 1059.83,473.276 1060.83,513.609 1079,553.5C 1105.96,599.233 1146.13,619.4 1199.5,614C 1225.86,611.725 1249.69,602.892 1271,587.5C 1272.15,596.176 1272.65,605.01 1272.5,614C 1272.33,622.5 1272.17,631 1272,639.5C 1248.58,653.973 1223.08,662.473 1195.5,665C 1123.33,670.67 1069.16,642.503 1033,580.5C 1006.81,525.034 1004.81,468.701 1027,411.5C 1054.08,353.272 1099.58,320.272 1163.5,312.5 Z"/></g>
<g><path style="opacity:0.98" fill="#fefffe" d="M 1698.5,312.5 C 1756.06,307.512 1804.23,326.178 1843,368.5C 1876.58,412.161 1889.58,461.495 1882,516.5C 1874.98,571.449 1848.48,613.949 1802.5,644C 1762.99,665.981 1721.32,671.314 1677.5,660C 1619.27,640.773 1580.77,601.94 1562,543.5C 1559.69,536.316 1558.69,528.983 1559,521.5C 1571.33,504.5 1583.67,487.5 1596,470.5C 1597.01,469.663 1598.18,469.33 1599.5,469.5C 1597.9,515.776 1613.57,554.942 1646.5,587C 1682.06,616.037 1721.39,622.37 1764.5,606C 1795.83,590.661 1816.33,566.161 1826,532.5C 1837.4,491.987 1833.07,453.32 1813,416.5C 1783.63,374.581 1743.46,357.747 1692.5,366C 1668.58,371.124 1647.58,381.791 1629.5,398C 1621,406.5 1612.5,415 1604,423.5C 1547.56,489.088 1494.39,557.088 1444.5,627.5C 1443.33,600.173 1443.17,572.839 1444,545.5C 1479.94,496.628 1516.6,448.295 1554,400.5C 1572.69,377.467 1594.19,357.634 1618.5,341C 1643.09,325.415 1669.76,315.915 1698.5,312.5 Z"/></g>
<g><path style="opacity:0.983" fill="#fefffe" d="M 873.5,313.5 C 894.208,313.053 914.208,316.553 933.5,324C 939.822,326.826 945.822,330.159 951.5,334C 942.991,347.856 935.158,362.023 928,376.5C 895.542,361.372 863.375,361.872 831.5,378C 805.382,395.039 790.549,419.205 787,450.5C 786.5,542.166 786.333,633.833 786.5,725.5C 769.5,725.5 752.5,725.5 735.5,725.5C 735.333,632.499 735.5,539.499 736,446.5C 747.052,365.945 792.885,321.612 873.5,313.5 Z"/></g>
</svg>
